<?xml version="1.0" encoding="UTF-8" standalone="no"?>
<!-- Created with Inkscape (http://www.inkscape.org/) -->

<svg
   xmlns:dc="http://purl.org/dc/elements/1.1/"
   xmlns:cc="http://creativecommons.org/ns#"
   xmlns:rdf="http://www.w3.org/1999/02/22-rdf-syntax-ns#"
   xmlns:svg="http://www.w3.org/2000/svg"
   xmlns="http://www.w3.org/2000/svg"
   xmlns:xlink="http://www.w3.org/1999/xlink"
   xmlns:sodipodi="http://sodipodi.sourceforge.net/DTD/sodipodi-0.dtd"
   xmlns:inkscape="http://www.inkscape.org/namespaces/inkscape"
   width="210mm"
   height="297mm"
   viewBox="0 0 210 297"
   version="1.1"
   id="svg6864"
   inkscape:version="0.92.3 (2405546, 2018-03-11)"
   sodipodi:docname="logo2.svg">
  <defs
     id="defs6858">
    <linearGradient
       inkscape:collect="always"
       id="linearGradient7512">
      <stop
         style="stop-color:#f39717;stop-opacity:1;"
         offset="0"
         id="stop7508" />
      <stop
         style="stop-color:#f39717;stop-opacity:0;"
         offset="1"
         id="stop7510" />
    </linearGradient>
    <linearGradient
       inkscape:collect="always"
       xlink:href="#linearGradient7512"
       id="linearGradient7514"
       x1="174.91341"
       y1="305.28132"
       x2="200.46029"
       y2="305.28132"
       gradientUnits="userSpaceOnUse" />
  </defs>
  <sodipodi:namedview
     id="base"
     pagecolor="#ffffff"
     bordercolor="#666666"
     borderopacity="1.0"
     inkscape:pageopacity="0.0"
     inkscape:pageshadow="2"
     inkscape:zoom="5.6"
     inkscape:cx="172.51139"
     inkscape:cy="964.39541"
     inkscape:document-units="mm"
     inkscape:current-layer="layer1"
     showgrid="false"
     inkscape:window-width="1920"
     inkscape:window-height="1027"
     inkscape:window-x="-8"
     inkscape:window-y="-8"
     inkscape:window-maximized="1"
     inkscape:snap-text-baseline="true" />
  <metadata
     id="metadata6861">
    <rdf:RDF>
      <cc:Work
         rdf:about="">
        <dc:format>image/svg+xml</dc:format>
        <dc:type
           rdf:resource="http://purl.org/dc/dcmitype/StillImage" />
        <dc:title />
      </cc:Work>
    </rdf:RDF>
  </metadata>
  <g
     inkscape:label="Capa 1"
     inkscape:groupmode="layer"
     id="layer1">
    <path
       sodipodi:type="star"
       id="path3721-1"
       sodipodi:sides="5"
       sodipodi:cx="80.126183"
       sodipodi:cy="91.520187"
       sodipodi:r1="8.9605074"
       sodipodi:r2="4.4802537"
       sodipodi:arg1="1.2679115"
       sodipodi:arg2="1.89623"
       inkscape:flatsided="false"
       inkscape:rounded="0"
       inkscape:randomized="0"
       d="m 82.798877,100.07281 -4.10512,-4.307528 -5.875696,0.939696 2.828153,-5.235302 -2.709394,-5.297737 5.853015,1.071936 4.201199,-4.213877 0.789209,5.897794 5.305877,2.693418 -5.365256,2.573101 z"
       inkscape:transform-center-x="-0.4996892"
       inkscape:transform-center-y="0.028446905"
       style="fill:#e5ceeb;fill-opacity:0.9758454;stroke-width:0.26458332"
       transform="matrix(0.4094038,0,0,0.91128785,24.933509,-63.492923)" />
    <path
       sodipodi:type="star"
       id="path3721-6-2"
       sodipodi:sides="5"
       sodipodi:cx="69.733246"
       sodipodi:cy="116.29458"
       sodipodi:r1="8.9605074"
       sodipodi:r2="4.4802537"
       sodipodi:arg1="1.2679115"
       sodipodi:arg2="1.89623"
       inkscape:flatsided="false"
       inkscape:rounded="0"
       inkscape:randomized="0"
       d="m 72.405941,124.8472 -4.105121,-4.30753 -5.875696,0.9397 2.828153,-5.2353 -2.709394,-5.29774 5.853015,1.07194 4.201199,-4.21388 0.78921,5.89779 5.305877,2.69342 -5.365257,2.5731 z"
       inkscape:transform-center-x="-0.24147962"
       inkscape:transform-center-y="0.016351354"
       style="fill:#a1ce00;fill-opacity:1;stroke-width:0.26458332"
       transform="matrix(0.19784874,0,0,0.52382504,16.678158,-5.447468)" />
    <path
       sodipodi:type="star"
       id="path3721-6-6-2"
       sodipodi:sides="5"
       sodipodi:cx="69.733246"
       sodipodi:cy="116.29458"
       sodipodi:r1="8.9605074"
       sodipodi:r2="4.4802537"
       sodipodi:arg1="1.2679115"
       sodipodi:arg2="1.89623"
       inkscape:flatsided="false"
       inkscape:rounded="0"
       inkscape:randomized="0"
       d="m 72.405941,124.8472 -4.105121,-4.30753 -5.875696,0.9397 2.828153,-5.2353 -2.709394,-5.29774 5.853015,1.07194 4.201199,-4.21388 0.78921,5.89779 5.305877,2.69342 -5.365257,2.5731 z"
       inkscape:transform-center-x="-0.3324882"
       inkscape:transform-center-y="0.020673591"
       style="fill:#e53c15;fill-opacity:0.63285068;stroke-width:0.26458332"
       transform="matrix(0.27241335,0,0,0.66227456,37.525772,-19.533548)" />
    <path
       sodipodi:type="star"
       id="path3721-6-9-5"
       sodipodi:sides="5"
       sodipodi:cx="69.733246"
       sodipodi:cy="116.29458"
       sodipodi:r1="8.9605074"
       sodipodi:r2="4.4802537"
       sodipodi:arg1="1.2679115"
       sodipodi:arg2="1.89623"
       inkscape:flatsided="false"
       inkscape:rounded="0"
       inkscape:randomized="0"
       d="m 72.405941,124.8472 -4.105121,-4.30753 -5.875696,0.9397 2.828153,-5.2353 -2.709394,-5.29774 5.853015,1.07194 4.201199,-4.21388 0.78921,5.89779 5.305877,2.69342 -5.365257,2.5731 z"
       inkscape:transform-center-x="-0.22229044"
       inkscape:transform-center-y="0.013582386"
       style="fill:#3bce00;fill-opacity:1;stroke-width:0.26458332"
       transform="matrix(0.18212658,0,0,0.43511288,8.184884,-2.149463)" />
    <path
       sodipodi:type="star"
       id="path3721-6-4-9"
       sodipodi:sides="5"
       sodipodi:cx="69.733246"
       sodipodi:cy="116.29458"
       sodipodi:r1="8.9605074"
       sodipodi:r2="4.4802537"
       sodipodi:arg1="1.2679115"
       sodipodi:arg2="1.89623"
       inkscape:flatsided="false"
       inkscape:rounded="0"
       inkscape:randomized="0"
       d="m 72.405941,124.8472 -4.105121,-4.30753 -5.875696,0.9397 2.828153,-5.2353 -2.709394,-5.29774 5.853015,1.07194 4.201199,-4.21388 0.78921,5.89779 5.305877,2.69342 -5.365257,2.5731 z"
       inkscape:transform-center-x="-0.31823733"
       inkscape:transform-center-y="0.017736075"
       style="fill:#e5ce00;fill-opacity:1;stroke-width:0.26458332"
       transform="matrix(0.26073742,0,0,0.56818113,22.807264,-7.690463)" />
    <path
       sodipodi:type="star"
       id="path3721-9-3"
       sodipodi:sides="5"
       sodipodi:cx="80.126183"
       sodipodi:cy="91.520187"
       sodipodi:r1="8.9605074"
       sodipodi:r2="4.4802537"
       sodipodi:arg1="1.2679115"
       sodipodi:arg2="1.89623"
       inkscape:flatsided="false"
       inkscape:rounded="0"
       inkscape:randomized="0"
       d="m 82.798877,100.07281 -4.10512,-4.307528 -5.875696,0.939696 2.828153,-5.235302 -2.709394,-5.297737 5.853015,1.071936 4.201199,-4.213877 0.789209,5.897794 5.305877,2.693418 -5.365256,2.573101 z"
       inkscape:transform-center-x="-0.52847319"
       inkscape:transform-center-y="0.026370403"
       style="fill:#e51700;fill-opacity:1;stroke-width:0.26458332"
       transform="matrix(0.43298705,0,0,0.84475373,-4.8087707,-44.601337)" />
    <path
       sodipodi:type="star"
       id="path3721-6-6-3-6"
       sodipodi:sides="5"
       sodipodi:cx="69.733246"
       sodipodi:cy="116.29458"
       sodipodi:r1="8.9605074"
       sodipodi:r2="4.4802537"
       sodipodi:arg1="1.2679115"
       sodipodi:arg2="1.89623"
       inkscape:flatsided="false"
       inkscape:rounded="0"
       inkscape:randomized="0"
       d="m 72.405941,124.8472 -4.105121,-4.30753 -5.875696,0.9397 2.828153,-5.2353 -2.709394,-5.29774 5.853015,1.07194 4.201199,-4.21388 0.78921,5.89779 5.305877,2.69342 -5.365257,2.5731 z"
       inkscape:transform-center-x="-0.59672632"
       inkscape:transform-center-y="-0.18240634"
       style="fill:#e53c15;fill-opacity:0.63285068;stroke-width:0.26458332"
       transform="matrix(0.31172302,0,0,0.71771968,49.320061,-29.915098)" />
    <path
       transform="matrix(2.6666237,0,0,1.7666714,-112.47228,-69.272013)"
       d="m 61.610123,60.953869 c -0.596961,0.284266 -0.677705,-0.664444 -0.47247,-0.992188 0.556175,-0.888166 1.846094,-0.604955 2.456845,0.04725 1.09249,1.166639 0.611721,3.018889 -0.566966,3.921502 -1.729771,1.324622 -4.209737,0.624615 -5.38616,-1.086684 -1.567988,-2.280893 -0.640476,-5.407273 1.606402,-6.850818 2.827468,-1.816554 6.608066,-0.657944 8.315475,2.126121 2.067902,3.371876 0.676357,7.810706 -2.645839,9.780132 -3.915093,2.320901 -9.014501,0.695365 -11.24479,-3.165557 -2.574956,-4.457587 -0.714768,-10.219067 3.685276,-12.709447 4.999609,-2.829728 11.424173,-0.73445 14.174104,4.204993 3.085008,5.541308 0.754331,12.629673 -4.724711,15.638762 -6.082775,3.34066 -13.835469,0.774362 -17.10342,-5.244429"
       sodipodi:t0="0"
       sodipodi:argument="-16.152382"
       sodipodi:radius="13.187253"
       sodipodi:revolution="3"
       sodipodi:expansion="1"
       sodipodi:cy="60.953869"
       sodipodi:cx="61.610123"
       id="path4771-4"
       style="fill:none;fill-rule:evenodd;stroke:#f39717;stroke-width:0.26458332;stroke-opacity:0.64824122"
       sodipodi:type="spiral" />
    <path
       sodipodi:type="star"
       id="path3721-9-3-2"
       sodipodi:sides="5"
       sodipodi:cx="80.126183"
       sodipodi:cy="91.520187"
       sodipodi:r1="8.9605074"
       sodipodi:r2="4.4802537"
       sodipodi:arg1="1.2679115"
       sodipodi:arg2="1.89623"
       inkscape:flatsided="false"
       inkscape:rounded="0"
       inkscape:randomized="0"
       d="m 82.798877,100.07281 -4.10512,-4.307528 -5.875696,0.939696 2.828153,-5.235302 -2.709394,-5.297737 5.853015,1.071936 4.201199,-4.213877 0.789209,5.897794 5.305877,2.693418 -5.365256,2.573101 z"
       inkscape:transform-center-x="-0.31578778"
       inkscape:transform-center-y="0.021870126"
       style="fill:#e51700;fill-opacity:1;stroke-width:0.26458332"
       transform="matrix(0.25873016,0,0,0.70059648,60.206092,-24.718838)" />
    <path
       sodipodi:type="star"
       id="path3721-9-3-2-7"
       sodipodi:sides="5"
       sodipodi:cx="80.126183"
       sodipodi:cy="91.520187"
       sodipodi:r1="8.9605074"
       sodipodi:r2="4.4802537"
       sodipodi:arg1="1.2679115"
       sodipodi:arg2="1.89623"
       inkscape:flatsided="false"
       inkscape:rounded="0"
       inkscape:randomized="0"
       d="m 82.798877,100.07281 -4.10512,-4.307528 -5.875696,0.939696 2.828153,-5.235302 -2.709394,-5.297737 5.853015,1.071936 4.201199,-4.213877 0.789209,5.897794 5.305877,2.693418 -5.365256,2.573101 z"
       inkscape:transform-center-x="-0.31578778"
       inkscape:transform-center-y="0.021870126"
       style="fill:#e51700;fill-opacity:1;stroke:#14a34f;stroke-width:0.26458332;stroke-opacity:0.11594202"
       transform="matrix(0.25873016,0,0,0.70059648,52.363086,-38.987439)" />
    <path
       sodipodi:type="star"
       id="path3721-6-6-2-5"
       sodipodi:sides="5"
       sodipodi:cx="69.733246"
       sodipodi:cy="116.29458"
       sodipodi:r1="8.9605074"
       sodipodi:r2="4.4802537"
       sodipodi:arg1="1.2679115"
       sodipodi:arg2="1.89623"
       inkscape:flatsided="false"
       inkscape:rounded="0"
       inkscape:randomized="0"
       d="m 72.405941,124.8472 -4.105121,-4.30753 -5.875696,0.9397 2.828153,-5.2353 -2.709394,-5.29774 5.853015,1.07194 4.201199,-4.21388 0.78921,5.89779 5.305877,2.69342 -5.365257,2.5731 z"
       inkscape:transform-center-x="-0.3324882"
       inkscape:transform-center-y="0.020673591"
       style="fill:#f535de;fill-opacity:0.63285068;stroke-width:0.26458332"
       transform="matrix(0.27241336,0,0,0.66227457,24.037469,-55.288249)" />
    <path
       sodipodi:type="star"
       id="path3721-1-1"
       sodipodi:sides="5"
       sodipodi:cx="80.126183"
       sodipodi:cy="91.520187"
       sodipodi:r1="8.9605074"
       sodipodi:r2="4.4802537"
       sodipodi:arg1="1.2679115"
       sodipodi:arg2="1.89623"
       inkscape:flatsided="false"
       inkscape:rounded="0"
       inkscape:randomized="0"
       d="m 82.798877,100.07281 -4.10512,-4.307528 -5.875696,0.939696 2.828153,-5.235302 -2.709394,-5.297737 5.853015,1.071936 4.201199,-4.213877 0.789209,5.897794 5.305877,2.693418 -5.365256,2.573101 z"
       inkscape:transform-center-x="-0.28700376"
       inkscape:transform-center-y="0.015292684"
       style="fill:#1eceeb;fill-opacity:0.9758454;stroke-width:0.26458332"
       transform="matrix(0.2351469,0,0,0.48990512,48.698215,-21.913881)" />
    <path
       sodipodi:type="star"
       id="path3721-1-1-6"
       sodipodi:sides="5"
       sodipodi:cx="80.126183"
       sodipodi:cy="91.520187"
       sodipodi:r1="8.9605074"
       sodipodi:r2="4.4802537"
       sodipodi:arg1="1.2679115"
       sodipodi:arg2="1.89623"
       inkscape:flatsided="false"
       inkscape:rounded="0"
       inkscape:randomized="0"
       d="m 82.798877,100.07281 -4.10512,-4.307528 -5.875696,0.939696 2.828153,-5.235302 -2.709394,-5.297737 5.853015,1.071936 4.201199,-4.213877 0.789209,5.897794 5.305877,2.693418 -5.365256,2.573101 z"
       inkscape:transform-center-x="-0.15939236"
       inkscape:transform-center-y="0.0097550835"
       style="fill:#ef7c22;fill-opacity:0.9758454;stroke-width:0.26458332"
       transform="matrix(0.13059277,0,0,0.31248082,67.516028,21.289197)" />
    <path
       id="path146"
       d="m 37.791054,42.952523 c -0.158811,-0.141174 -0.320091,-0.280413 -0.489556,-0.399745 -0.143841,-0.103029 -0.297334,-0.183735 -0.453629,-0.249842 -0.153561,-0.05769 -0.309065,-0.09632 -0.468114,-0.116687 -0.138094,-0.0084 -0.278037,-0.02784 -0.415649,-0.0049 -0.122958,0.0239 -0.246105,0.05417 -0.366004,0.09682 -0.123483,0.03616 -0.237437,0.107295 -0.352536,0.172574 -0.215149,0.143995 -0.546063,0.390223 0.424765,-0.319527 0.02019,-0.01475 -0.03965,0.03107 -0.05933,0.04692 -0.03705,0.02981 -0.07376,0.06036 -0.110686,0.09045 -0.09111,0.07592 -0.174513,0.167143 -0.251309,0.265606 -0.06484,0.07629 -0.12628,0.157246 -0.181088,0.245587 -0.05552,0.09957 -0.102982,0.20604 -0.135935,0.321018 -0.03151,0.09993 -0.05824,0.199702 -0.07118,0.306412 -0.01072,0.11562 -0.01056,0.232284 -0.01095,0.34854 -0.0013,0.126002 -0.0019,0.251141 0.01111,0.376171 0.01156,0.135214 0.02984,0.26825 0.0516,0.401241 0.02254,0.125732 0.06422,0.242904 0.10464,0.360269 0.0474,0.137105 0.09621,0.27289 0.151588,0.40515 0.05765,0.102297 0.109476,0.209675 0.174468,0.304607 0.0491,0.08937 0.114338,0.160013 0.170524,0.241178 0.06399,0.07173 0.127075,0.145656 0.194297,0.212502 0.07849,0.08175 0.168011,0.142935 0.260946,0.192729 0.10084,0.05914 0.204684,0.112909 0.311247,0.152738 0.09439,0.03346 0.186981,0.06873 0.284478,0.08489 0.114805,0.01989 0.22852,-0.01347 0.342752,-0.0271 0.139991,-0.0271 0.273883,-0.0849 0.409863,-0.132968 0.137504,-0.06524 0.273143,-0.137642 0.401873,-0.22831 -1.044456,0.811375 -0.440063,0.325326 -0.20968,0.113282 0.132033,-0.117072 0.254059,-0.248332 0.3721,-0.387418 0.125849,-0.144818 0.23333,-0.312599 0.338156,-0.482069 0.100359,-0.166472 0.194564,-0.339056 0.284109,-0.515376 0.07554,-0.155655 0.145182,-0.315604 0.206018,-0.481518 0.05023,-0.145243 0.102936,-0.289052 0.143949,-0.439114 0.04363,-0.139927 0.07001,-0.285502 0.08501,-0.434556 0.02402,-0.124486 0.02722,-0.24833 0.02244,-0.375556 -7.94e-4,-0.120554 -0.01614,-0.239048 -0.04039,-0.355223 -0.02949,-0.122109 -0.06655,-0.241164 -0.101794,-0.360758 -0.02363,-0.09771 -0.05513,-0.193756 -0.106732,-0.272564 -0.01662,-0.02644 -0.03203,-0.0666 -0.06127,-0.07328 -0.01196,-0.0027 -0.04389,0.02665 -0.03321,0.01923 0.198509,-0.137628 0.395166,-0.279624 0.592749,-0.419435 -0.0562,0.03732 -0.0838,0.108426 -0.113017,0.176922 -0.03254,0.100896 -0.0576,0.20493 -0.07319,0.312241 -0.01005,0.142 -0.0297,0.282307 -0.04408,0.423611 -0.02119,0.172063 -0.01421,0.343603 -5.29e-4,0.515811 0.01159,0.177187 0.0302,0.353588 0.056,0.52829 0.02954,0.199657 0.07004,0.396692 0.115737,0.59118 0.04048,0.200533 0.09834,0.394007 0.155273,0.587511 0.05095,0.164055 0.106881,0.326342 0.168064,0.48454 0.05861,0.142832 0.122071,0.282456 0.196381,0.412786 0.0775,0.148306 0.166611,0.285225 0.259559,0.417714 0.09147,0.127608 0.187045,0.250186 0.282419,0.372928 0.09455,0.121364 0.189206,0.242595 0.283784,0.363922 0.09628,0.110507 0.200777,0.207769 0.302422,0.309703 0.101004,0.09411 0.206264,0.180168 0.307543,0.273686 0.08817,0.07225 0.177525,0.141238 0.264123,0.21661 0.0832,0.06606 0.171244,0.120541 0.256842,0.181027 0.01519,0.0091 0.03038,0.01836 0.04556,0.02751 0,0 -0.585875,0.496357 -0.585875,0.496357 v 0 c -0.01566,-0.01015 -0.03135,-0.02033 -0.04702,-0.03049 -0.08836,-0.05944 -0.176985,-0.118575 -0.261022,-0.187845 -0.08763,-0.07399 -0.176401,-0.145476 -0.263779,-0.219936 -0.102775,-0.09243 -0.207397,-0.181434 -0.307994,-0.277851 -0.104357,-0.103273 -0.211667,-0.202162 -0.307385,-0.318969 -0.09461,-0.121363 -0.189309,-0.242625 -0.283829,-0.364109 -0.09612,-0.123934 -0.192363,-0.247841 -0.28407,-0.377236 -0.09398,-0.135394 -0.183613,-0.275521 -0.263959,-0.424904 -0.07626,-0.134983 -0.141255,-0.279268 -0.202512,-0.426207 -0.06126,-0.161641 -0.117806,-0.326749 -0.170103,-0.493494 -0.05574,-0.195991 -0.115713,-0.390505 -0.156565,-0.592797 -0.04697,-0.196907 -0.08844,-0.396516 -0.119927,-0.598488 -0.02822,-0.17662 -0.04845,-0.355648 -0.05951,-0.535386 -0.01429,-0.177863 -0.02763,-0.354686 -0.0075,-0.533117 0.01273,-0.142298 0.03547,-0.282388 0.04111,-0.425506 0.01222,-0.114425 0.03561,-0.223273 0.06419,-0.332305 0.0127,-0.04619 0.03015,-0.07723 0.04764,-0.118999 0.01529,-0.03649 0.01873,-0.07889 0.04833,-0.103787 0.304031,-0.218078 0.549445,-0.692838 0.762953,-0.321294 0.05309,0.08914 0.09212,0.190203 0.116009,0.298361 0.03551,0.122083 0.07365,0.243112 0.104728,0.367106 0.02834,0.121042 0.04642,0.24648 0.04795,0.373084 0.0058,0.131322 0.01392,0.262162 -0.01794,0.389694 -0.01257,0.153822 -0.03271,0.307889 -0.07956,0.451375 -0.03731,0.155084 -0.09032,0.301493 -0.141235,0.449714 -0.06212,0.168289 -0.12655,0.334113 -0.203607,0.49244 -0.08708,0.180294 -0.183592,0.353258 -0.282284,0.523282 -0.102251,0.174804 -0.211566,0.343707 -0.333246,0.496836 -0.120263,0.136945 -0.233624,0.282222 -0.36889,0.396016 -0.311875,0.294314 -0.633288,0.557186 -0.98416,0.778508 -0.132574,0.08387 -0.269208,0.159115 -0.410789,0.214162 -0.137253,0.05161 -0.275627,0.100844 -0.418187,0.121363 -0.11828,0.01693 -0.236731,0.0396 -0.355233,0.01015 -0.09855,-0.02311 -0.193833,-0.06117 -0.290057,-0.09651 -0.106926,-0.04684 -0.212357,-0.09997 -0.314732,-0.161403 -0.09675,-0.05725 -0.190278,-0.123304 -0.272482,-0.211311 -0.06817,-0.0726 -0.137496,-0.144107 -0.200395,-0.224204 -0.05812,-0.07981 -0.120555,-0.154632 -0.170815,-0.243536 -0.0672,-0.100922 -0.122108,-0.213737 -0.18079,-0.322892 -0.05624,-0.134236 -0.106135,-0.272038 -0.155308,-0.410587 -0.0421,-0.123316 -0.0865,-0.245583 -0.111921,-0.376908 -0.02125,-0.135071 -0.04317,-0.268994 -0.05301,-0.406534 -0.01535,-0.128848 -0.02093,-0.256529 -0.01683,-0.387046 2.9e-5,-0.119462 -5.29e-4,-0.23911 0.0066,-0.358306 0.0089,-0.111663 0.02421,-0.221611 0.06624,-0.321662 0.02675,-0.124023 0.07073,-0.238389 0.126765,-0.345049 0.04697,-0.0997 0.110424,-0.183241 0.175831,-0.262941 0.08209,-0.09484 0.15644,-0.202186 0.248724,-0.282187 0.30416,-0.25748 0.616662,-0.502941 0.946232,-0.702999 0.116145,-0.06645 0.235233,-0.124576 0.359683,-0.160024 0.123306,-0.03534 0.246663,-0.07358 0.373044,-0.08543 0.140819,-0.0071 0.281863,0.0035 0.422079,0.02063 0.161912,0.02638 0.321117,0.06975 0.476988,0.132706 0.157798,0.073 0.313521,0.155717 0.458333,0.26533 0.171524,0.127724 0.337881,0.267672 0.502068,0.410271 0,0 -0.595466,0.476945 -0.595466,0.476945 z"
       inkscape:connector-curvature="0"
       style="stroke-width:0.29990405" />
    <path
       id="path148"
       d="m 53.300936,48.641551 c 0.154567,0.0287 0.308477,0.04454 0.463835,0.025 0.112475,-0.0015 0.21494,-0.05091 0.318874,-0.101993 0.10111,-0.03293 0.188772,-0.106262 0.279823,-0.170238 -1.048872,0.788372 -0.592447,0.513658 -0.397455,0.269712 0.05023,-0.06137 0.09975,-0.124549 0.145609,-0.192009 0.06789,-0.0729 0.118816,-0.164847 0.165354,-0.262693 0.05315,-0.116388 0.09766,-0.23892 0.13817,-0.364078 0.04207,-0.09974 0.06185,-0.207642 0.07193,-0.320555 0.0062,-0.122218 0.01138,-0.245542 0.0037,-0.367777 -0.02376,-0.127748 -0.05783,-0.251799 -0.09734,-0.372054 -0.03641,-0.12947 -0.08472,-0.246105 -0.150186,-0.352007 -0.09496,-0.112363 -0.185444,-0.234828 -0.290089,-0.330562 -0.103407,-0.09947 -0.214363,-0.181854 -0.324093,-0.267244 -0.113626,-0.06774 -0.232953,-0.116402 -0.355315,-0.144134 -0.125277,-0.02942 -0.249277,-0.02521 -0.37448,-0.0037 -0.129821,0.01315 -0.248462,0.07865 -0.366856,0.146056 -0.215405,0.150842 -0.544258,0.409331 0.42753,-0.339298 0.01998,-0.01539 -0.0394,0.0321 -0.05862,0.04915 -0.04928,0.04376 -0.06437,0.06119 -0.111104,0.109584 -0.110175,0.107537 -0.184896,0.260821 -0.265692,0.405289 -0.09214,0.152179 -0.157273,0.327208 -0.213336,0.507539 -0.05517,0.177138 -0.09349,0.36287 -0.129185,0.548651 -0.02846,0.15602 -0.03056,0.317095 -0.04981,0.47512 -0.01093,0.147058 -0.005,0.296725 0.0074,0.443367 0.01204,0.161322 0.04815,0.313974 0.0931,0.463295 0.05587,0.151931 0.117036,0.300086 0.176898,0.449174 0.04684,0.131218 0.11095,0.2501 0.175434,0.366338 0.07124,0.118435 0.159716,0.217906 0.247859,0.312701 0.127191,0.116578 0.246883,0.246958 0.373878,0.363809 0.131352,0.108987 0.264588,0.212329 0.408926,0.286077 0.155311,0.09118 0.315376,0.165715 0.479502,0.221753 0.124894,0.05308 0.25227,0.09357 0.379349,0.135149 0.124926,0.0377 0.253349,0.04281 0.380778,0.04749 0.136422,0.0081 0.271073,0.0043 0.406212,-0.02062 0.13947,-0.01617 0.275865,-0.05761 0.414658,-0.08129 0.152307,-0.04185 0.30589,-0.0785 0.456358,-0.131368 0.142338,-0.04685 0.283811,-0.09828 0.424551,-0.153517 0.117086,-0.05653 0.23655,-0.105924 0.351562,-0.16981 0.08423,-0.03805 0.162446,-0.09554 0.243734,-0.143184 0,0 -0.549812,0.590998 -0.549812,0.590998 v 0 c -0.08052,0.05064 -0.162081,0.09831 -0.245864,0.138285 -0.117718,0.0556 -0.234273,0.115927 -0.354182,0.162623 -0.140758,0.05415 -0.282924,0.101965 -0.425079,0.148782 -0.153162,0.04567 -0.306375,0.09229 -0.461442,0.124617 -0.138559,0.02711 -0.276008,0.06421 -0.415676,0.08047 -0.137091,0.019 -0.274561,0.01434 -0.41217,0.0087 -0.131086,-0.007 -0.262859,-0.01787 -0.390412,-0.06272 -0.126267,-0.04389 -0.253002,-0.08508 -0.377243,-0.139024 -0.165002,-0.06292 -0.327001,-0.139066 -0.484658,-0.230435 -0.146185,-0.08257 -0.284009,-0.187269 -0.416941,-0.303891 -0.128156,-0.119046 -0.250418,-0.249147 -0.378661,-0.368107 -0.09246,-0.100569 -0.185198,-0.204827 -0.258445,-0.332051 -0.06652,-0.119967 -0.132059,-0.243185 -0.179332,-0.379346 -0.06105,-0.15209 -0.123994,-0.302716 -0.180729,-0.457901 -0.04796,-0.155897 -0.08872,-0.315035 -0.102211,-0.483956 -0.01842,-0.154779 -0.01852,-0.313052 -0.01789,-0.469585 0.02241,-0.159984 0.02751,-0.321764 0.04888,-0.482113 0.03432,-0.189777 0.07399,-0.378849 0.126198,-0.560994 0.05322,-0.18684 0.114676,-0.370878 0.205057,-0.530837 0.08371,-0.145099 0.153551,-0.308142 0.259255,-0.42646 0.281422,-0.317238 0.609108,-0.554176 0.941427,-0.759702 0.121539,-0.06557 0.247656,-0.11117 0.378606,-0.124779 0.129296,-0.01589 0.258813,-0.006 0.38654,0.02665 0.127114,0.03698 0.252963,0.08882 0.369022,0.16936 0.111628,0.08597 0.221499,0.175803 0.326703,0.275773 0.106362,0.105896 0.204938,0.227081 0.300466,0.350306 0.07029,0.112023 0.121589,0.236736 0.160774,0.374131 0.04338,0.128548 0.07788,0.261789 0.108053,0.397064 0.01423,0.127599 0.0064,0.257313 0.0037,0.385957 -0.0068,0.121337 -0.01773,0.243081 -0.06129,0.351853 -0.04926,0.12017 -0.07876,0.255304 -0.136459,0.370208 -0.04069,0.104582 -0.08798,0.21082 -0.155297,0.28753 -0.05367,0.05688 -0.09598,0.132181 -0.144772,0.196319 -0.09539,0.09943 0.04115,-0.04655 -0.05523,0.06958 -0.216234,0.260527 -0.562023,0.335322 -0.746692,0.613995 -0.09142,0.06645 -0.187227,0.118138 -0.286448,0.159404 -0.1065,0.04894 -0.215911,0.075 -0.328525,0.07971 -0.15839,0.0089 -0.315405,-0.01726 -0.472969,-0.03687 0,0 0.572317,-0.550649 0.572317,-0.550649 z"
       inkscape:connector-curvature="0"
       style="stroke-width:0.30805072" />
    <path
       id="path150"
       d="m 65.767169,35.429967 c -0.08652,-0.140967 -0.183248,-0.275135 -0.27944,-0.409572 -0.06817,-0.09042 -0.159033,-0.155898 -0.247549,-0.22428 -0.100296,-0.06959 -0.206812,-0.132789 -0.319291,-0.180583 -0.107376,-0.0475 -0.217509,-0.09305 -0.331663,-0.121481 -0.113948,-0.02788 -0.226952,-0.05353 -0.343855,-0.06617 -0.123691,0.0058 -0.245399,0.02191 -0.366403,0.04705 -0.119748,0.0218 -0.237266,0.05681 -0.348409,0.106439 -0.270804,0.154884 0.331658,-0.191164 0.498454,-0.285046 0.01762,-0.0099 -0.03415,0.02175 -0.05067,0.03344 -0.05068,0.03588 -0.0964,0.07645 -0.141293,0.119153 -0.0732,0.0895 -0.159083,0.167317 -0.234773,0.254394 -0.07885,0.09714 -0.149376,0.199647 -0.207946,0.310142 -0.0687,0.118303 -0.121386,0.244485 -0.1719,0.3713 -0.04226,0.109196 -0.07739,0.21994 -0.105304,0.333544 -0.0328,0.112197 -0.0468,0.228053 -0.05511,0.344245 -0.0059,0.106097 -0.0061,0.212407 -0.0062,0.318635 0.0039,0.10238 0.03479,0.200898 0.06794,0.297066 0.03351,0.09664 0.07651,0.189873 0.122333,0.281239 0.04286,0.08523 0.100565,0.159977 0.158033,0.235339 0.04696,0.05181 0.09464,0.101888 0.14755,0.147711 0.07366,0.05258 0.155405,0.09123 0.234302,0.134924 0.08403,0.04271 0.176807,0.05879 0.265702,0.08808 0.08034,0.02421 0.164513,0.02737 0.247753,0.03009 0.09065,-0.005 0.186592,-0.01831 0.273945,-0.04529 0.09813,-0.01852 0.188362,-0.0592 0.280662,-0.09527 0.09362,-0.03358 0.191447,-0.06546 0.275423,-0.119653 0.0132,-0.0071 0.05263,-0.02886 0.03964,-0.02135 -0.187124,0.108096 -0.374351,0.216009 -0.562039,0.323118 -0.0284,0.01619 0.0539,-0.03714 0.08217,-0.05355 0.08147,-0.04731 1.513777,-0.869386 0.0807,-0.04675 1.429493,-0.82767 0.318323,-0.183812 0.07494,-0.0447 -0.01214,0.007 0.02384,-0.01474 0.03516,-0.02297 0.03226,-0.02339 0.06239,-0.05014 0.09128,-0.07749 0.05976,-0.05634 0.116303,-0.116425 0.171281,-0.177525 0.06849,-0.07718 0.120944,-0.166576 0.17662,-0.25301 0.06017,-0.09366 0.114115,-0.190979 0.160231,-0.292267 0.03757,-0.104743 0.08006,-0.20765 0.118383,-0.312084 0.04014,-0.09148 0.0641,-0.187169 0.08588,-0.284165 0.02667,-0.09069 0.04121,-0.183618 0.04907,-0.277601 0.0061,-0.09359 0.006,-0.187439 0.0061,-0.281186 -4.5e-5,-0.09448 -2.64e-4,-0.188952 -2.64e-4,-0.28343 0.0049,-0.08678 -0.0016,-0.170815 -0.01871,-0.255685 -0.01167,-0.04991 -0.01662,-0.140147 -0.07876,-0.152286 -0.0276,0.0043 -0.01519,-0.0016 -0.03661,0.01871 0.196342,-0.109024 0.39225,-0.218826 0.58902,-0.327075 0.0089,-0.0049 -0.01759,0.01024 -0.02519,0.01691 -0.01984,0.01741 -0.02987,0.03583 -0.04445,0.05765 -0.05944,0.08373 -0.09476,0.180647 -0.128098,0.276884 -0.04201,0.131516 -0.06805,0.266546 -0.0932,0.401981 -0.03136,0.144304 -0.04574,0.291044 -0.0541,0.438203 -0.0047,0.150821 -0.01058,0.301924 -0.0019,0.45266 0.01267,0.152548 0.03712,0.303964 0.06876,0.453654 0.03085,0.142624 0.07018,0.283311 0.107466,0.424371 0.03919,0.125428 0.07663,0.251481 0.110673,0.378428 0.03023,0.115734 0.06473,0.230206 0.0965,0.345498 0.03455,0.1089 0.05677,0.220896 0.08646,0.331081 0.02212,0.09752 0.04147,0.195475 0.0633,0.293111 0.02011,0.09386 0.0232,0.18973 0.04102,0.283927 0.02535,0.09732 0.02694,0.194016 0.01582,0.293143 -0.01445,0.09427 -0.01606,0.189769 -0.02646,0.284398 -0.01407,0.09658 -0.03521,0.191465 -0.05863,0.286107 -0.02593,0.09623 -0.05895,0.190296 -0.08902,0.285247 -0.02223,0.08186 -0.06597,0.153268 -0.111202,0.223904 -0.04495,0.08271 -0.105645,0.154384 -0.17109,0.221395 -0.219395,0.216757 -0.514903,0.340836 -0.786328,0.481909 -0.08657,0.02819 -0.174093,0.05551 -0.263044,0.07597 -0.09476,0.01905 -0.191614,0.02169 -0.287933,0.02355 -0.08563,2.3e-5 -0.168288,-0.02739 -0.253431,-0.03766 -0.07946,-0.02302 -0.155358,-0.05559 -0.234918,-0.07801 -0.08012,-0.01728 -0.155564,-0.05065 -0.22974,-0.08463 -0.07774,-0.02299 -0.143902,-0.0705 -0.21834,-0.100849 -0.06752,-0.03274 -0.121756,-0.08295 -0.180282,-0.128367 -0.009,-0.0048 -0.01802,-0.0096 -0.02702,-0.01437 0,0 0.591524,-0.381842 0.591524,-0.381842 v 0 c 0.01061,0.0073 0.02122,0.01453 0.03184,0.0218 0.05273,0.04374 0.106908,0.08541 0.169874,0.113763 0.07231,0.03529 0.142983,0.07366 0.218977,0.101002 0.07187,0.03285 0.14742,0.05729 0.22375,0.07751 0.07558,0.02498 0.150318,0.05443 0.228886,0.06877 0.08159,0.0132 0.162335,0.03634 0.245797,0.0283 0.09369,-0.004 0.187773,-0.01058 0.278533,-0.03601 0.08622,-0.02487 0.174786,-0.04616 0.254344,-0.08879 0.232484,-0.117266 0.04258,-0.02238 -0.534152,0.313632 -0.08115,0.04728 0.207018,-0.12301 0.123375,-0.08369 0.05916,-0.06916 0.1332,-0.125989 0.176806,-0.207904 0.03833,-0.07095 0.09163,-0.132141 0.119305,-0.208769 0.02627,-0.09513 0.06123,-0.187529 0.09059,-0.281721 0.02125,-0.09367 0.04804,-0.185401 0.06107,-0.280858 0.0185,-0.09285 0.01066,-0.189076 0.02733,-0.282556 0.01225,-0.09284 0.02122,-0.181589 -0.0057,-0.273534 -0.01894,-0.09383 -0.025,-0.188172 -0.04024,-0.282604 -0.02066,-0.09694 -0.0429,-0.193144 -0.06114,-0.290555 -0.02939,-0.110337 -0.05069,-0.222515 -0.08638,-0.331153 -0.03007,-0.115977 -0.06519,-0.23056 -0.09602,-0.346342 -0.03199,-0.127495 -0.07017,-0.253468 -0.10941,-0.378873 -0.03716,-0.142197 -0.07639,-0.28395 -0.108284,-0.427418 -0.0337,-0.152427 -0.05831,-0.307203 -0.07298,-0.462627 -0.01297,-0.152836 -0.0057,-0.306641 -0.0026,-0.459856 0.0065,-0.149942 0.01881,-0.299892 0.05017,-0.446971 0.02658,-0.137086 0.04753,-0.274955 0.08728,-0.409165 0.03147,-0.101627 0.06715,-0.201168 0.116502,-0.295561 0.01376,-0.01746 0.04621,-0.08792 0.0591,-0.09558 0.264814,-0.157472 0.440944,-0.451535 0.694764,-0.334886 0.0653,0.05148 0.09714,0.123397 0.107993,0.205314 0.01812,0.08929 0.03201,0.176758 0.02429,0.268491 9.3e-5,0.09451 2.65e-4,0.189021 5.29e-4,0.283533 4.5e-5,0.09522 5.3e-4,0.190492 -0.0039,0.285639 -0.0058,0.09743 -0.01593,0.194831 -0.04378,0.288825 -0.02752,0.09664 -0.03584,0.199064 -0.08382,0.289631 -0.03457,0.107408 -0.08478,0.20887 -0.117179,0.317114 -0.04207,0.105217 -0.09385,0.206084 -0.155326,0.301302 -0.05278,0.09057 -0.111665,0.177747 -0.170736,0.264279 -0.05563,0.06244 -0.112577,0.121859 -0.166888,0.185042 -0.0358,0.02876 -0.08774,0.09045 -0.122889,0.111551 -0.07301,0.04383 -1.516023,0.879784 -0.07505,0.04466 -0.213206,0.12351 -0.424942,0.249592 -0.639619,0.370525 -0.187479,0.105614 0.371874,-0.216614 0.558022,-0.324556 0.02826,-0.01638 -0.05298,0.03843 -0.08113,0.05501 -0.508252,0.29931 -0.432538,0.257781 -0.6799,0.39193 -0.09188,0.04152 -0.185391,0.07884 -0.280376,0.112673 -0.09315,0.03726 -0.18881,0.06618 -0.286825,0.08781 -0.09443,0.0173 -0.189846,0.03746 -0.286355,0.02933 -0.0878,-0.0057 -0.175567,-0.01532 -0.258943,-0.0453 -0.09172,-0.03008 -0.187756,-0.04861 -0.271568,-0.09925 -0.08399,-0.04441 -0.169275,-0.08792 -0.244195,-0.146989 -0.05598,-0.04904 -0.106143,-0.103807 -0.154659,-0.160176 -0.05984,-0.0789 -0.116761,-0.159356 -0.163063,-0.247248 -0.04765,-0.09374 -0.09185,-0.189765 -0.126862,-0.288957 -0.03727,-0.102854 -0.06851,-0.209111 -0.07865,-0.318392 -4.2e-5,-0.107577 -0.0013,-0.215222 0.004,-0.322709 0.0072,-0.119756 0.01799,-0.240176 0.04977,-0.356291 0.03135,-0.114988 0.05598,-0.231105 0.102883,-0.341553 0.04912,-0.12886 0.09936,-0.258466 0.168309,-0.378106 0.05831,-0.113297 0.119811,-0.223099 0.201991,-0.321598 0.06821,-0.09612 0.161875,-0.166264 0.232391,-0.260823 0.233397,-0.267259 0.583375,-0.415145 0.8909,-0.57035 0.115946,-0.04171 0.234402,-0.07567 0.356222,-0.09557 0.12496,-0.02246 0.252812,-0.03746 0.37986,-0.02942 0.118374,0.01696 0.233944,0.04516 0.349771,0.07458 0.115258,0.03537 0.22788,0.07982 0.337179,0.130685 0.114808,0.05492 0.225891,0.118626 0.328796,0.193707 0.09409,0.0721 0.18706,0.145881 0.257016,0.243118 0.09531,0.136729 0.188089,0.27509 0.2833,0.411879 0,0 -0.606317,0.352894 -0.606317,0.352894 z"
       inkscape:connector-curvature="0"
       style="stroke-width:0.26458332" />
    <path
       id="path156"
       d="m 44.260068,40.150127 c 0.141736,-0.222508 0.284996,-0.44187 0.422291,-0.673036 0.193112,-0.345433 0.37408,-0.711035 0.555045,-1.076266 0.229896,-0.460701 0.449505,-0.936968 0.665413,-1.418329 0.200446,-0.438671 0.383466,-0.900636 0.568619,-1.359547 0.169462,-0.400358 0.329705,-0.812655 0.486682,-1.228609 0.131532,-0.352538 0.262149,-0.706147 0.393551,-1.058837 0.111777,-0.297969 0.226106,-0.592913 0.335644,-0.893519 0.07631,-0.202263 0.160879,-0.394099 0.239152,-0.593893 0.04734,-0.128293 0.100465,-0.249307 0.148032,-0.377312 0.03307,-0.09763 0.06663,-0.194635 0.100445,-0.291466 0.02952,-0.08005 0.05736,-0.162548 0.08866,-0.24048 -0.07197,-0.559354 0.409964,-0.617959 0.440438,-0.299161 0.0048,0.04959 -0.0022,0.107258 -0.0047,0.156587 -0.01252,0.154405 -0.03265,0.306409 -0.04886,0.459637 -0.01861,0.201141 -0.03617,0.40209 -0.04612,0.60522 -0.0165,0.224336 -0.02881,0.449104 -0.03525,0.675043 -0.006,0.257117 -0.0063,0.514522 -0.0066,0.771817 0.0084,0.269941 0.01529,0.54042 0.02794,0.809873 0.01498,0.262383 0.0369,0.523497 0.05972,0.784074 0.02196,0.260258 0.05709,0.515765 0.09189,0.7713 0.03329,0.25623 0.06878,0.511901 0.111602,0.763691 0.04475,0.256705 0.09974,0.507219 0.15926,0.754145 0.05524,0.2261 0.11646,0.447124 0.18265,0.663689 0.05934,0.199221 0.121886,0.395209 0.18406,0.591657 0.05834,0.180672 0.119553,0.357821 0.18349,0.532372 0.04577,0.144877 0.09827,0.281246 0.158144,0.408747 0.04809,0.108488 0.09408,0.220337 0.144743,0.325054 0.03332,0.07179 0.0666,0.145512 0.105412,0.208335 0.03078,0.05867 0.06368,0.112717 0.09305,0.173884 0.0296,0.07153 0.06567,0.13549 0.09407,0.208368 -0.418244,0.468024 -0.318102,0.556152 -0.491981,0.224376 -0.0569,-0.107475 -0.115459,-0.212158 -0.174034,-0.31676 -0.06683,-0.117711 -0.12602,-0.248241 -0.192285,-0.36688 -0.0641,-0.118158 -0.11433,-0.256747 -0.178959,-0.374049 -0.06035,-0.109912 -0.130798,-0.19937 -0.193857,-0.303719 -0.06207,-0.117764 -0.131782,-0.22089 -0.199662,-0.32768 -0.05776,-0.100531 -0.122985,-0.185418 -0.184835,-0.277594 -0.06403,-0.09734 -0.124331,-0.202002 -0.184441,-0.306802 -0.05315,-0.0857 -0.106242,-0.170533 -0.161118,-0.252879 -0.06187,-0.07 -0.115825,-0.158596 -0.174653,-0.235641 -0.06708,-0.07193 -0.130298,-0.152618 -0.194642,-0.231576 -0.05206,-0.06458 -0.105545,-0.125212 -0.155928,-0.194127 -0.04712,-0.06375 -0.09811,-0.118995 -0.145066,-0.183009 -0.05022,-0.06311 -0.101409,-0.12374 -0.150895,-0.188725 -0.05683,-0.07057 -0.118422,-0.126684 -0.178682,-0.18703 -0.06092,-0.05184 -0.119063,-0.113328 -0.18261,-0.154761 -0.05099,-0.04562 -0.103504,-0.08814 -0.158282,-0.117405 -0.04981,-0.04071 -0.100334,-0.08058 -0.152997,-0.108339 -0.05854,-0.0388 -0.117332,-0.07824 -0.177657,-0.107716 -0.05393,-0.02537 -0.104822,-0.06086 -0.160523,-0.07486 -0.04804,-0.03017 -0.09658,-0.05023 -0.144182,-0.08196 0,0 0.378408,-0.452189 0.378408,-0.452189 v 0 c 0.04541,0.02893 0.09285,0.04781 0.139266,0.07077 0.05551,0.02111 0.107964,0.05836 0.162955,0.08297 0.05999,0.03412 0.119398,0.07143 0.178677,0.109189 0.05177,0.03295 0.102248,0.07172 0.15311,0.108728 0.05435,0.03536 0.107196,0.07724 0.15933,0.121767 0.06345,0.04859 0.124159,0.107487 0.185571,0.163574 0.0621,0.0604 0.123797,0.122254 0.181628,0.195073 0.05047,0.06334 0.101742,0.12463 0.151942,0.188665 0.04833,0.06116 0.09705,0.12129 0.144818,0.183864 0.05091,0.06606 0.103432,0.128021 0.154893,0.192658 0.06363,0.08199 0.12934,0.157421 0.195044,0.234113 0.05842,0.08039 0.115716,0.163219 0.17622,0.238793 0.05586,0.083 0.108628,0.17122 0.16205,0.259044 0.05944,0.10313 0.119158,0.205988 0.182862,0.300915 0.06253,0.09178 0.126949,0.179549 0.185289,0.279963 0.068,0.106889 0.136121,0.213337 0.199299,0.32936 0.06529,0.102889 0.136043,0.194893 0.196193,0.30799 0.06252,0.119875 0.114332,0.255419 0.177946,0.373584 0.06564,0.119577 0.125368,0.249096 0.192718,0.365852 0.05894,0.105199 0.11784,0.210485 0.17546,0.317967 0.175395,0.329257 0.125371,0.136843 -0.28767,0.615184 -0.002,0.0025 -0.0026,-0.0073 -0.0039,-0.01092 -0.02449,-0.07261 -0.0609,-0.132982 -0.08959,-0.200174 -0.0292,-0.05799 -0.06124,-0.110913 -0.09114,-0.16774 -0.03807,-0.06821 -0.07349,-0.141245 -0.106539,-0.217194 -0.04931,-0.106913 -0.09656,-0.216867 -0.143917,-0.326555 -0.06036,-0.13065 -0.113487,-0.269933 -0.159315,-0.418183 -0.06444,-0.175971 -0.125374,-0.355499 -0.184204,-0.537567 -0.06241,-0.196733 -0.124524,-0.393673 -0.184196,-0.593077 -0.06645,-0.219124 -0.127665,-0.442975 -0.18344,-0.671321 -0.05993,-0.249672 -0.115783,-0.502616 -0.162034,-0.761407 -0.04325,-0.253072 -0.07905,-0.510214 -0.112249,-0.767945 -0.0359,-0.257328 -0.07114,-0.514932 -0.09412,-0.777093 -0.02242,-0.26243 -0.04541,-0.525021 -0.06073,-0.789059 -0.01378,-0.271403 -0.01876,-0.544154 -0.02993,-0.815948 3.43e-4,-0.25808 -8.8e-5,-0.516227 0.0046,-0.774207 0.0057,-0.226463 0.01496,-0.452398 0.03385,-0.676784 0.0087,-0.205058 0.02535,-0.407715 0.04304,-0.610803 0.01395,-0.151237 0.03311,-0.300593 0.04856,-0.45131 3.43e-4,-0.0086 0.0036,-0.152179 0.01127,-0.147419 0.0026,0.0015 0.0012,0.01521 0.0034,0.01286 0.127553,-0.127002 0.252442,-0.262232 0.378664,-0.393349 -0.04401,0.05466 -0.05839,0.153181 -0.09447,0.221998 -0.03052,0.101579 -0.06985,0.19356 -0.100702,0.294823 -0.04451,0.133977 -0.100919,0.252905 -0.149484,0.382151 -0.07709,0.203552 -0.164297,0.39437 -0.243672,0.59513 -0.109904,0.302382 -0.225754,0.597683 -0.33848,0.896709 -0.13212,0.353567 -0.263685,0.707784 -0.395962,1.061165 -0.15753,0.417368 -0.317384,0.83242 -0.488533,1.232726 -0.186027,0.460327 -0.369045,0.924865 -0.570281,1.36506 -0.215528,0.481042 -0.434216,0.957764 -0.662452,1.420142 -0.179816,0.364733 -0.35865,0.731077 -0.549004,1.078903 -0.13309,0.231224 -0.274592,0.445524 -0.411535,0.669411 0,0 -0.420868,0.303267 -0.420868,0.303267 z"
       inkscape:connector-curvature="0"
       style="stroke-width:0.22843562" />
  </g>
</svg>
