<?xml version="1.0" encoding="UTF-8" standalone="no"?>
<!-- Created with Inkscape (http://www.inkscape.org/) -->

<svg
   xmlns:dc="http://purl.org/dc/elements/1.1/"
   xmlns:cc="http://creativecommons.org/ns#"
   xmlns:rdf="http://www.w3.org/1999/02/22-rdf-syntax-ns#"
   xmlns:svg="http://www.w3.org/2000/svg"
   xmlns="http://www.w3.org/2000/svg"
   xmlns:xlink="http://www.w3.org/1999/xlink"
   xmlns:sodipodi="http://sodipodi.sourceforge.net/DTD/sodipodi-0.dtd"
   xmlns:inkscape="http://www.inkscape.org/namespaces/inkscape"
   width="70mm"
   height="40mm"
   viewBox="0 0 70 40"
   version="1.1"
   id="svg6864"
   inkscape:version="0.92.3 (2405546, 2018-03-11)"
   sodipodi:docname="logo3.svg">
  <defs
     id="defs6858">
    <linearGradient
       inkscape:collect="always"
       id="linearGradient7512">
      <stop
         style="stop-color:#f39717;stop-opacity:1;"
         offset="0"
         id="stop7508" />
      <stop
         style="stop-color:#f39717;stop-opacity:0;"
         offset="1"
         id="stop7510" />
    </linearGradient>
    <linearGradient
       inkscape:collect="always"
       xlink:href="#linearGradient7512"
       id="linearGradient7514"
       x1="174.91341"
       y1="305.28131"
       x2="200.4603"
       y2="305.28131"
       gradientUnits="userSpaceOnUse" />
  </defs>
  <sodipodi:namedview
     id="base"
     pagecolor="#ffffff"
     bordercolor="#666666"
     borderopacity="1.0"
     inkscape:pageopacity="0.0"
     inkscape:pageshadow="2"
     inkscape:zoom="0.70000002"
     inkscape:cx="345.34262"
     inkscape:cy="-74.347856"
     inkscape:document-units="mm"
     inkscape:current-layer="layer1"
     showgrid="false"
     inkscape:window-width="1920"
     inkscape:window-height="1027"
     inkscape:window-x="-8"
     inkscape:window-y="-8"
     inkscape:window-maximized="1"
     inkscape:snap-text-baseline="true" />
  <metadata
     id="metadata6861">
    <rdf:RDF>
      <cc:Work
         rdf:about="">
        <dc:format>image/svg+xml</dc:format>
        <dc:type
           rdf:resource="http://purl.org/dc/dcmitype/StillImage" />
        <dc:title></dc:title>
      </cc:Work>
    </rdf:RDF>
  </metadata>
  <g
     inkscape:label="Capa 1"
     inkscape:groupmode="layer"
     id="layer1"
     transform="translate(0,-257)">
    <g
       id="g53"
       transform="translate(-16.360424,245.71567)">
      <path
         transform="matrix(0.32725832,0,0,0.6131937,28.798516,-38.212998)"
         style="fill:#e5ceeb;fill-opacity:0.9758454;stroke-width:0.26458332"
         inkscape:transform-center-y="0.026110578"
         inkscape:transform-center-x="-0.39942872"
         d="m 82.798877,100.07281 -4.10512,-4.307528 -5.875696,0.939696 2.828153,-5.235302 -2.709394,-5.297737 5.853015,1.071936 4.201199,-4.213877 0.789209,5.897794 5.305877,2.693418 -5.365256,2.573101 z"
         inkscape:randomized="0"
         inkscape:rounded="0"
         inkscape:flatsided="false"
         sodipodi:arg2="1.89623"
         sodipodi:arg1="1.2679115"
         sodipodi:r2="4.4802537"
         sodipodi:r1="8.9605074"
         sodipodi:cy="91.520187"
         sodipodi:cx="80.126183"
         sodipodi:sides="5"
         id="path3721-1"
         sodipodi:type="star" />
      <path
         transform="matrix(0.19784874,0,0,0.38402557,16.678158,-0.7453348)"
         style="fill:#a1ce00;fill-opacity:1;stroke-width:0.26458332"
         inkscape:transform-center-y="0.016351354"
         inkscape:transform-center-x="-0.24147962"
         d="m 72.405941,124.8472 -4.105121,-4.30753 -5.875696,0.9397 2.828153,-5.2353 -2.709394,-5.29774 5.853015,1.07194 4.201199,-4.21388 0.78921,5.89779 5.305877,2.69342 -5.365257,2.5731 z"
         inkscape:randomized="0"
         inkscape:rounded="0"
         inkscape:flatsided="false"
         sodipodi:arg2="1.89623"
         sodipodi:arg1="1.2679115"
         sodipodi:r2="4.4802537"
         sodipodi:r1="8.9605074"
         sodipodi:cy="116.29458"
         sodipodi:cx="69.733246"
         sodipodi:sides="5"
         id="path3721-6-2"
         sodipodi:type="star" />
      <path
         transform="matrix(0.27241335,0,0,0.48552541,37.525772,-11.072094)"
         style="fill:#e53c15;fill-opacity:0.63285068;stroke-width:0.26458332"
         inkscape:transform-center-y="0.020673591"
         inkscape:transform-center-x="-0.3324882"
         d="m 72.405941,124.8472 -4.105121,-4.30753 -5.875696,0.9397 2.828153,-5.2353 -2.709394,-5.29774 5.853015,1.07194 4.201199,-4.21388 0.78921,5.89779 5.305877,2.69342 -5.365257,2.5731 z"
         inkscape:randomized="0"
         inkscape:rounded="0"
         inkscape:flatsided="false"
         sodipodi:arg2="1.89623"
         sodipodi:arg1="1.2679115"
         sodipodi:r2="4.4802537"
         sodipodi:r1="8.9605074"
         sodipodi:cy="116.29458"
         sodipodi:cx="69.733246"
         sodipodi:sides="5"
         id="path3721-6-6-2"
         sodipodi:type="star" />
      <path
         transform="matrix(0.18212658,0,0,0.31898909,8.184884,1.6724921)"
         style="fill:#3bce00;fill-opacity:1;stroke-width:0.26458332"
         inkscape:transform-center-y="0.013582386"
         inkscape:transform-center-x="-0.22229044"
         d="m 72.405941,124.8472 -4.105121,-4.30753 -5.875696,0.9397 2.828153,-5.2353 -2.709394,-5.29774 5.853015,1.07194 4.201199,-4.21388 0.78921,5.89779 5.305877,2.69342 -5.365257,2.5731 z"
         inkscape:randomized="0"
         inkscape:rounded="0"
         inkscape:flatsided="false"
         sodipodi:arg2="1.89623"
         sodipodi:arg1="1.2679115"
         sodipodi:r2="4.4802537"
         sodipodi:r1="8.9605074"
         sodipodi:cy="116.29458"
         sodipodi:cx="69.733246"
         sodipodi:sides="5"
         id="path3721-6-9-5"
         sodipodi:type="star" />
      <path
         transform="matrix(0.26073742,0,0,0.41654382,22.807264,-2.3897148)"
         style="fill:#e5ce00;fill-opacity:1;stroke-width:0.26458332"
         inkscape:transform-center-y="0.017736075"
         inkscape:transform-center-x="-0.31823733"
         d="m 72.405941,124.8472 -4.105121,-4.30753 -5.875696,0.9397 2.828153,-5.2353 -2.709394,-5.29774 5.853015,1.07194 4.201199,-4.21388 0.78921,5.89779 5.305877,2.69342 -5.365257,2.5731 z"
         inkscape:randomized="0"
         inkscape:rounded="0"
         inkscape:flatsided="false"
         sodipodi:arg2="1.89623"
         sodipodi:arg1="1.2679115"
         sodipodi:r2="4.4802537"
         sodipodi:r1="8.9605074"
         sodipodi:cy="116.29458"
         sodipodi:cx="69.733246"
         sodipodi:sides="5"
         id="path3721-6-4-9"
         sodipodi:type="star" />
      <path
         transform="matrix(0.43298705,0,0,0.61930417,-4.8087707,-29.449741)"
         style="fill:#e51700;fill-opacity:1;stroke-width:0.26458332"
         inkscape:transform-center-y="0.026370403"
         inkscape:transform-center-x="-0.52847319"
         d="m 82.798877,100.07281 -4.10512,-4.307528 -5.875696,0.939696 2.828153,-5.235302 -2.709394,-5.297737 5.853015,1.071936 4.201199,-4.213877 0.789209,5.897794 5.305877,2.693418 -5.365256,2.573101 z"
         inkscape:randomized="0"
         inkscape:rounded="0"
         inkscape:flatsided="false"
         sodipodi:arg2="1.89623"
         sodipodi:arg1="1.2679115"
         sodipodi:r2="4.4802537"
         sodipodi:r1="8.9605074"
         sodipodi:cy="91.520187"
         sodipodi:cx="80.126183"
         sodipodi:sides="5"
         id="path3721-9-3"
         sodipodi:type="star" />
      <path
         transform="matrix(0.31172302,0,0,0.52617322,49.320061,-18.682995)"
         style="fill:#e53c15;fill-opacity:0.63285068;stroke-width:0.26458332"
         inkscape:transform-center-y="-0.18240634"
         inkscape:transform-center-x="-0.59672632"
         d="m 72.405941,124.8472 -4.105121,-4.30753 -5.875696,0.9397 2.828153,-5.2353 -2.709394,-5.29774 5.853015,1.07194 4.201199,-4.21388 0.78921,5.89779 5.305877,2.69342 -5.365257,2.5731 z"
         inkscape:randomized="0"
         inkscape:rounded="0"
         inkscape:flatsided="false"
         sodipodi:arg2="1.89623"
         sodipodi:arg1="1.2679115"
         sodipodi:r2="4.4802537"
         sodipodi:r1="8.9605074"
         sodipodi:cy="116.29458"
         sodipodi:cx="69.733246"
         sodipodi:sides="5"
         id="path3721-6-6-3-6"
         sodipodi:type="star" />
      <path
         sodipodi:type="spiral"
         style="fill:none;fill-rule:evenodd;stroke:#f39717;stroke-width:0.26458332;stroke-opacity:0.64824123"
         id="path4771-4"
         sodipodi:cx="61.610123"
         sodipodi:cy="60.953869"
         sodipodi:expansion="1"
         sodipodi:revolution="3"
         sodipodi:radius="13.187253"
         sodipodi:argument="-16.152382"
         sodipodi:t0="0"
         d="m 61.610123,60.953869 c -0.596961,0.284266 -0.677705,-0.664444 -0.47247,-0.992188 0.556175,-0.888166 1.846094,-0.604955 2.456845,0.04725 1.09249,1.166639 0.611721,3.018889 -0.566966,3.921502 -1.729771,1.324622 -4.209737,0.624615 -5.38616,-1.086684 -1.567988,-2.280893 -0.640476,-5.407273 1.606402,-6.850818 2.827468,-1.816554 6.608066,-0.657944 8.315475,2.126121 2.067902,3.371876 0.676357,7.810706 -2.645839,9.780132 -3.915093,2.320901 -9.014501,0.695365 -11.24479,-3.165557 -2.574956,-4.457587 -0.714768,-10.219067 3.685276,-12.709447 4.999609,-2.829728 11.424173,-0.73445 14.174104,4.204993 3.085008,5.541308 0.754331,12.629673 -4.724711,15.638762 -6.082775,3.34066 -13.835469,0.774362 -17.10342,-5.244429"
         transform="matrix(2.6666237,0,0,1.2951786,-112.47228,-47.536258)" />
      <path
         transform="matrix(0.25873016,0,0,0.5136199,60.206092,-14.873523)"
         style="fill:#e51700;fill-opacity:1;stroke-width:0.26458332"
         inkscape:transform-center-y="0.021870126"
         inkscape:transform-center-x="-0.31578778"
         d="m 82.798877,100.07281 -4.10512,-4.307528 -5.875696,0.939696 2.828153,-5.235302 -2.709394,-5.297737 5.853015,1.071936 4.201199,-4.213877 0.789209,5.897794 5.305877,2.693418 -5.365256,2.573101 z"
         inkscape:randomized="0"
         inkscape:rounded="0"
         inkscape:flatsided="false"
         sodipodi:arg2="1.89623"
         sodipodi:arg1="1.2679115"
         sodipodi:r2="4.4802537"
         sodipodi:r1="8.9605074"
         sodipodi:cy="91.520187"
         sodipodi:cx="80.126183"
         sodipodi:sides="5"
         id="path3721-9-3-2"
         sodipodi:type="star" />
      <path
         transform="matrix(0.25873016,0,0,0.5136199,55.035781,-23.59684)"
         style="fill:#e51700;fill-opacity:1;stroke:#14a34f;stroke-width:0.26458332;stroke-opacity:0.11594202"
         inkscape:transform-center-y="0.021870126"
         inkscape:transform-center-x="-0.31578778"
         d="m 82.798877,100.07281 -4.10512,-4.307528 -5.875696,0.939696 2.828153,-5.235302 -2.709394,-5.297737 5.853015,1.071936 4.201199,-4.213877 0.789209,5.897794 5.305877,2.693418 -5.365256,2.573101 z"
         inkscape:randomized="0"
         inkscape:rounded="0"
         inkscape:flatsided="false"
         sodipodi:arg2="1.89623"
         sodipodi:arg1="1.2679115"
         sodipodi:r2="4.4802537"
         sodipodi:r1="8.9605074"
         sodipodi:cy="91.520187"
         sodipodi:cx="80.126183"
         sodipodi:sides="5"
         id="path3721-9-3-2-7"
         sodipodi:type="star" />
      <path
         transform="matrix(0.27241336,0,0,0.48552541,24.037469,-37.284509)"
         style="fill:#f535de;fill-opacity:0.63285068;stroke-width:0.26458332"
         inkscape:transform-center-y="0.020673591"
         inkscape:transform-center-x="-0.3324882"
         d="m 72.405941,124.8472 -4.105121,-4.30753 -5.875696,0.9397 2.828153,-5.2353 -2.709394,-5.29774 5.853015,1.07194 4.201199,-4.21388 0.78921,5.89779 5.305877,2.69342 -5.365257,2.5731 z"
         inkscape:randomized="0"
         inkscape:rounded="0"
         inkscape:flatsided="false"
         sodipodi:arg2="1.89623"
         sodipodi:arg1="1.2679115"
         sodipodi:r2="4.4802537"
         sodipodi:r1="8.9605074"
         sodipodi:cy="116.29458"
         sodipodi:cx="69.733246"
         sodipodi:sides="5"
         id="path3721-6-6-2-5"
         sodipodi:type="star" />
      <path
         transform="matrix(0.28443418,0,0,0.60223301,45.37648,-35.805984)"
         style="fill:#1eceeb;fill-opacity:0.9758454;stroke-width:0.26458332"
         inkscape:transform-center-y="0.025642097"
         inkscape:transform-center-x="-0.34715918"
         d="m 82.798877,100.07281 -4.10512,-4.307528 -5.875696,0.939696 2.828153,-5.235302 -2.709394,-5.297737 5.853015,1.071936 4.201199,-4.213877 0.789209,5.897794 5.305877,2.693418 -5.365256,2.573101 z"
         inkscape:randomized="0"
         inkscape:rounded="0"
         inkscape:flatsided="false"
         sodipodi:arg2="1.89623"
         sodipodi:arg1="1.2679115"
         sodipodi:r2="4.4802537"
         sodipodi:r1="8.9605074"
         sodipodi:cy="91.520187"
         sodipodi:cx="80.126183"
         sodipodi:sides="5"
         id="path3721-1-1"
         sodipodi:type="star" />
      <path
         transform="matrix(0.13059277,0,0,0.22908532,67.516028,18.855796)"
         style="fill:#ef7c22;fill-opacity:0.9758454;stroke-width:0.26458332"
         inkscape:transform-center-y="0.0097550835"
         inkscape:transform-center-x="-0.15939236"
         d="m 82.798877,100.07281 -4.10512,-4.307528 -5.875696,0.939696 2.828153,-5.235302 -2.709394,-5.297737 5.853015,1.071936 4.201199,-4.213877 0.789209,5.897794 5.305877,2.693418 -5.365256,2.573101 z"
         inkscape:randomized="0"
         inkscape:rounded="0"
         inkscape:flatsided="false"
         sodipodi:arg2="1.89623"
         sodipodi:arg1="1.2679115"
         sodipodi:r2="4.4802537"
         sodipodi:r1="8.9605074"
         sodipodi:cy="91.520187"
         sodipodi:cx="80.126183"
         sodipodi:sides="5"
         id="path3721-1-1-6"
         sodipodi:type="star" />
      <path
         style="stroke-width:0.25678477"
         inkscape:connector-curvature="0"
         d="m 37.791054,34.73757 c -0.158811,-0.103497 -0.320091,-0.205576 -0.489556,-0.29306 -0.143841,-0.07553 -0.297334,-0.134699 -0.453629,-0.183164 -0.153561,-0.04229 -0.309065,-0.07061 -0.468114,-0.08555 -0.138094,-0.0062 -0.278037,-0.02041 -0.415649,-0.0036 -0.122958,0.01752 -0.246105,0.03971 -0.366004,0.07098 -0.123483,0.02651 -0.237437,0.07866 -0.352536,0.126517 -0.215149,0.105566 -0.546063,0.28608 0.424765,-0.234251 0.02019,-0.01081 -0.03965,0.02278 -0.05933,0.0344 -0.03705,0.02185 -0.07376,0.04425 -0.110686,0.06631 -0.09111,0.05566 -0.174513,0.122535 -0.251309,0.19472 -0.06484,0.05593 -0.12628,0.11528 -0.181088,0.180045 -0.05552,0.073 -0.102982,0.151051 -0.135935,0.235344 -0.03151,0.07326 -0.05824,0.146405 -0.07118,0.224636 -0.01072,0.08476 -0.01056,0.170291 -0.01095,0.255521 -0.0013,0.09237 -0.0019,0.184116 0.01111,0.275777 0.01156,0.09913 0.02984,0.196659 0.0516,0.294157 0.02254,0.09218 0.06422,0.178078 0.10464,0.26412 0.0474,0.100514 0.09621,0.200061 0.151588,0.297023 0.05765,0.075 0.109476,0.153716 0.174468,0.223313 0.0491,0.06552 0.114338,0.117308 0.170524,0.176812 0.06399,0.05259 0.127075,0.106783 0.194297,0.155789 0.07849,0.05993 0.168011,0.104788 0.260946,0.141293 0.10084,0.04336 0.204684,0.08278 0.311247,0.111975 0.09439,0.02453 0.186981,0.05039 0.284478,0.06223 0.114805,0.01458 0.22852,-0.0099 0.342752,-0.01987 0.139991,-0.01987 0.273883,-0.06224 0.409863,-0.09748 0.137504,-0.04783 0.273143,-0.100908 0.401873,-0.167379 -1.044456,0.594834 -0.440063,0.238503 -0.20968,0.08305 0.132033,-0.08583 0.254059,-0.182056 0.3721,-0.284023 0.125849,-0.106168 0.23333,-0.229172 0.338156,-0.353413 0.100359,-0.122044 0.194564,-0.248568 0.284109,-0.377832 0.07554,-0.114113 0.145182,-0.231375 0.206018,-0.353009 0.05023,-0.10648 0.102936,-0.211909 0.143949,-0.321922 0.04363,-0.102583 0.07001,-0.209307 0.08501,-0.318581 0.02402,-0.09126 0.02722,-0.182056 0.02244,-0.275327 -7.94e-4,-0.08838 -0.01614,-0.175251 -0.04039,-0.260421 -0.02949,-0.08952 -0.06655,-0.176801 -0.101794,-0.264478 -0.02363,-0.07163 -0.05513,-0.142046 -0.106732,-0.199821 -0.01662,-0.01938 -0.03203,-0.04883 -0.06127,-0.05372 -0.01196,-0.002 -0.04389,0.01954 -0.03321,0.0141 0.198509,-0.100898 0.395166,-0.204998 0.592749,-0.307496 -0.0562,0.02736 -0.0838,0.07949 -0.113017,0.129705 -0.03254,0.07397 -0.0576,0.150238 -0.07319,0.228909 -0.01005,0.104103 -0.0297,0.206965 -0.04408,0.310557 -0.02119,0.126143 -0.01421,0.251902 -5.29e-4,0.378151 0.01159,0.129899 0.0302,0.259221 0.056,0.387299 0.02954,0.146372 0.07004,0.290822 0.115737,0.433404 0.04048,0.147015 0.09834,0.288854 0.155273,0.430715 0.05095,0.120272 0.106881,0.239247 0.168064,0.355225 0.05861,0.104713 0.122071,0.207074 0.196381,0.302621 0.0775,0.108726 0.166611,0.209104 0.259559,0.306234 0.09147,0.09355 0.187045,0.183416 0.282419,0.2734 0.09455,0.08897 0.189206,0.177851 0.283784,0.266798 0.09628,0.08101 0.200777,0.152319 0.302422,0.227049 0.101004,0.06899 0.206264,0.132084 0.307543,0.200644 0.08817,0.05297 0.177525,0.103544 0.264123,0.1588 0.0832,0.04843 0.171244,0.08837 0.256842,0.132715 0.01519,0.0067 0.03038,0.01346 0.04556,0.02017 0,0 -0.585875,0.363888 -0.585875,0.363888 v 0 c -0.01566,-0.0074 -0.03135,-0.0149 -0.04702,-0.02235 -0.08836,-0.04358 -0.176985,-0.08693 -0.261022,-0.137712 -0.08763,-0.05424 -0.176401,-0.106652 -0.263779,-0.161239 -0.102775,-0.06776 -0.207397,-0.133013 -0.307994,-0.203698 -0.104357,-0.07571 -0.211667,-0.148209 -0.307385,-0.233842 -0.09461,-0.08897 -0.189309,-0.177873 -0.283829,-0.266935 -0.09612,-0.09086 -0.192363,-0.181697 -0.28407,-0.276558 -0.09398,-0.09926 -0.183613,-0.20199 -0.263959,-0.311505 -0.07626,-0.09896 -0.141255,-0.204737 -0.202512,-0.31246 -0.06126,-0.118502 -0.117806,-0.239546 -0.170103,-0.361789 -0.05574,-0.143685 -0.115713,-0.286287 -0.156565,-0.434591 -0.04697,-0.144356 -0.08844,-0.290693 -0.119927,-0.438762 -0.02822,-0.129483 -0.04845,-0.260732 -0.05951,-0.392501 -0.01429,-0.130395 -0.02763,-0.260027 -0.0075,-0.390838 0.01273,-0.104321 0.03547,-0.207024 0.04111,-0.311946 0.01222,-0.08389 0.03561,-0.163685 0.06419,-0.243619 0.0127,-0.03386 0.03015,-0.05662 0.04764,-0.08724 0.01529,-0.02675 0.01873,-0.05784 0.04833,-0.07609 0.304031,-0.159877 0.549445,-0.507932 0.762953,-0.235547 0.05309,0.06535 0.09212,0.139442 0.116009,0.218734 0.03551,0.0895 0.07365,0.17823 0.104728,0.269132 0.02834,0.08874 0.04642,0.180699 0.04795,0.273515 0.0058,0.09627 0.01392,0.192196 -0.01794,0.285692 -0.01257,0.112769 -0.03271,0.225719 -0.07956,0.330911 -0.03731,0.113695 -0.09032,0.22103 -0.141235,0.329693 -0.06212,0.123376 -0.12655,0.244944 -0.203607,0.361017 -0.08708,0.132177 -0.183592,0.25898 -0.282284,0.383627 -0.102251,0.128152 -0.211566,0.251978 -0.333246,0.36424 -0.120263,0.100397 -0.233624,0.206902 -0.36889,0.290326 -0.311875,0.215767 -0.633288,0.408483 -0.98416,0.570738 -0.132574,0.06149 -0.269208,0.11665 -0.410789,0.157006 -0.137253,0.03784 -0.275627,0.07393 -0.418187,0.08897 -0.11828,0.01241 -0.236731,0.02903 -0.355233,0.0074 -0.09855,-0.01694 -0.193833,-0.04484 -0.290057,-0.07075 -0.106926,-0.03434 -0.212357,-0.07329 -0.314732,-0.118328 -0.09675,-0.04197 -0.190278,-0.0904 -0.272482,-0.154916 -0.06817,-0.05322 -0.137496,-0.105647 -0.200395,-0.164368 -0.05812,-0.05851 -0.120555,-0.113363 -0.170815,-0.17854 -0.0672,-0.07399 -0.122108,-0.156695 -0.18079,-0.236718 -0.05624,-0.09841 -0.106135,-0.199436 -0.155308,-0.301009 -0.0421,-0.0904 -0.0865,-0.180041 -0.111921,-0.276318 -0.02125,-0.09902 -0.04317,-0.197204 -0.05301,-0.298037 -0.01535,-0.09446 -0.02093,-0.188066 -0.01683,-0.283751 2.9e-5,-0.08758 -5.29e-4,-0.175296 0.0066,-0.26268 0.0089,-0.08186 0.02421,-0.162467 0.06624,-0.235817 0.02675,-0.09092 0.07073,-0.174767 0.126765,-0.252961 0.04697,-0.07309 0.110424,-0.134337 0.175831,-0.192767 0.08209,-0.06953 0.15644,-0.148226 0.248724,-0.206876 0.30416,-0.188764 0.616662,-0.368715 0.946232,-0.515382 0.116145,-0.04872 0.235233,-0.09133 0.359683,-0.117316 0.123306,-0.02591 0.246663,-0.05394 0.373044,-0.06263 0.140819,-0.0052 0.281863,0.0026 0.422079,0.01512 0.161912,0.01934 0.321117,0.05114 0.476988,0.09729 0.157798,0.05352 0.313521,0.114159 0.458333,0.194518 0.171524,0.09364 0.337881,0.196235 0.502068,0.300777 0,0 -0.595466,0.349657 -0.595466,0.349657 z"
         id="path146" />
      <path
         style="stroke-width:0.26376015"
         inkscape:connector-curvature="0"
         d="m 53.300936,38.908299 c 0.154567,0.02104 0.308477,0.03265 0.463835,0.01833 0.112475,-0.0011 0.21494,-0.03732 0.318874,-0.07477 0.10111,-0.02414 0.188772,-0.0779 0.279823,-0.124804 -1.048872,0.577969 -0.592447,0.376572 -0.397455,0.19773 0.05023,-0.04499 0.09975,-0.09131 0.145609,-0.140765 0.06789,-0.05344 0.118816,-0.120852 0.165354,-0.192585 0.05315,-0.08533 0.09766,-0.175156 0.13817,-0.266912 0.04207,-0.07312 0.06185,-0.152226 0.07193,-0.235005 0.0062,-0.0896 0.01138,-0.180011 0.0037,-0.269624 -0.02376,-0.09365 -0.05783,-0.184598 -0.09734,-0.272759 -0.03641,-0.09492 -0.08472,-0.180424 -0.150186,-0.258063 -0.09496,-0.08238 -0.185444,-0.172156 -0.290089,-0.242341 -0.103407,-0.07292 -0.214363,-0.13332 -0.324093,-0.195921 -0.113626,-0.04966 -0.232953,-0.08534 -0.355315,-0.105667 -0.125277,-0.02157 -0.249277,-0.01848 -0.37448,-0.0027 -0.129821,0.0096 -0.248462,0.05766 -0.366856,0.107076 -0.215405,0.110585 -0.544258,0.300088 0.42753,-0.248745 0.01998,-0.01128 -0.0394,0.02353 -0.05862,0.03603 -0.04928,0.03208 -0.06437,0.04486 -0.111104,0.08034 -0.110175,0.07884 -0.184896,0.191212 -0.265692,0.297124 -0.09214,0.111566 -0.157273,0.239882 -0.213336,0.372086 -0.05517,0.129863 -0.09349,0.266027 -0.129185,0.402226 -0.02846,0.114381 -0.03056,0.232468 -0.04981,0.348319 -0.01093,0.107811 -0.005,0.217535 0.0074,0.325041 0.01204,0.118268 0.04815,0.23018 0.0931,0.33965 0.05587,0.111383 0.117036,0.219998 0.176898,0.329297 0.04684,0.0962 0.11095,0.183353 0.175434,0.268569 0.07124,0.08683 0.159716,0.159751 0.247859,0.229247 0.127191,0.08546 0.246883,0.181049 0.373878,0.266715 0.131352,0.0799 0.264588,0.155662 0.408926,0.209728 0.155311,0.06685 0.315376,0.121489 0.479502,0.162571 0.124894,0.03891 0.25227,0.0686 0.379349,0.09908 0.124926,0.02764 0.253349,0.03139 0.380778,0.03482 0.136422,0.0059 0.271073,0.0032 0.406212,-0.01512 0.13947,-0.01185 0.275865,-0.04223 0.414658,-0.0596 0.152307,-0.03068 0.30589,-0.05755 0.456358,-0.09631 0.142338,-0.03435 0.283811,-0.07205 0.424551,-0.112546 0.117086,-0.04144 0.23655,-0.07766 0.351562,-0.124491 0.08423,-0.0279 0.162446,-0.07004 0.243734,-0.104971 0,0 -0.549812,0.433271 -0.549812,0.433271 v 0 c -0.08052,0.03713 -0.162081,0.07207 -0.245864,0.10138 -0.117718,0.04076 -0.234273,0.08499 -0.354182,0.119221 -0.140758,0.0397 -0.282924,0.07475 -0.425079,0.109075 -0.153162,0.03348 -0.306375,0.06766 -0.461442,0.09136 -0.138559,0.01987 -0.276008,0.04707 -0.415676,0.05899 -0.137091,0.01393 -0.274561,0.01051 -0.41217,0.0064 -0.131086,-0.0051 -0.262859,-0.0131 -0.390412,-0.04598 -0.126267,-0.03218 -0.253002,-0.06237 -0.377243,-0.101921 -0.165002,-0.04613 -0.327001,-0.101952 -0.484658,-0.168936 -0.146185,-0.06053 -0.284009,-0.13729 -0.416941,-0.222788 -0.128156,-0.08727 -0.250418,-0.182654 -0.378661,-0.269866 -0.09246,-0.07373 -0.185198,-0.150162 -0.258445,-0.243432 -0.06652,-0.08795 -0.132059,-0.178284 -0.179332,-0.278106 -0.06105,-0.1115 -0.123994,-0.221926 -0.180729,-0.335695 -0.04796,-0.114291 -0.08872,-0.230958 -0.102211,-0.354797 -0.01842,-0.113471 -0.01852,-0.229504 -0.01789,-0.344261 0.02241,-0.117287 0.02751,-0.235891 0.04888,-0.353446 0.03432,-0.139129 0.07399,-0.277741 0.126198,-0.411275 0.05322,-0.136976 0.114676,-0.271897 0.205057,-0.389166 0.08371,-0.106375 0.153551,-0.225904 0.259255,-0.312645 0.281422,-0.232573 0.609108,-0.406277 0.941427,-0.556952 0.121539,-0.04807 0.247656,-0.0815 0.378606,-0.09148 0.129296,-0.01165 0.258813,-0.0044 0.38654,0.01954 0.127114,0.02711 0.252963,0.06512 0.369022,0.124161 0.111628,0.06303 0.221499,0.128884 0.326703,0.202174 0.106362,0.07764 0.204938,0.166477 0.300466,0.256816 0.07029,0.08213 0.121589,0.173555 0.160774,0.274282 0.04338,0.09424 0.07788,0.191922 0.108053,0.291095 0.01423,0.09354 0.0064,0.188641 0.0037,0.282952 -0.0068,0.08895 -0.01773,0.178207 -0.06129,0.25795 -0.04926,0.0881 -0.07876,0.187168 -0.136459,0.271406 -0.04069,0.07667 -0.08798,0.154556 -0.155297,0.210793 -0.05367,0.0417 -0.09598,0.0969 -0.144772,0.143925 -0.09539,0.07289 0.04115,-0.03413 -0.05523,0.05101 -0.216234,0.190997 -0.562023,0.24583 -0.746692,0.45013 -0.09142,0.04872 -0.187227,0.08661 -0.286448,0.116862 -0.1065,0.03588 -0.215911,0.05498 -0.328525,0.05844 -0.15839,0.0065 -0.315405,-0.01265 -0.472969,-0.02703 0,0 0.572317,-0.403691 0.572317,-0.403691 z"
         id="path148" />
      <path
         style="stroke-width:0.22654235"
         inkscape:connector-curvature="0"
         d="m 65.767169,29.222649 c -0.08652,-0.103345 -0.183248,-0.201706 -0.27944,-0.300265 -0.06817,-0.06629 -0.159033,-0.114291 -0.247549,-0.164423 -0.100296,-0.05102 -0.206812,-0.09735 -0.319291,-0.132389 -0.107376,-0.03482 -0.217509,-0.06822 -0.331663,-0.08906 -0.113948,-0.02044 -0.226952,-0.03924 -0.343855,-0.04851 -0.123691,0.0043 -0.245399,0.01606 -0.366403,0.03449 -0.119748,0.01598 -0.237266,0.04165 -0.348409,0.07803 -0.270804,0.113549 0.331658,-0.140146 0.498454,-0.208972 0.01762,-0.0073 -0.03415,0.01594 -0.05067,0.02452 -0.05068,0.0263 -0.0964,0.05605 -0.141293,0.08735 -0.0732,0.06561 -0.159083,0.122663 -0.234773,0.1865 -0.07885,0.07121 -0.149376,0.146365 -0.207946,0.227371 -0.0687,0.08673 -0.121386,0.179236 -0.1719,0.272207 -0.04226,0.08005 -0.07739,0.161242 -0.105304,0.244527 -0.0328,0.08225 -0.0468,0.16719 -0.05511,0.252372 -0.0059,0.07778 -0.0061,0.15572 -0.0062,0.233597 0.0039,0.07506 0.03479,0.147282 0.06794,0.217785 0.03351,0.07085 0.07651,0.139199 0.122333,0.206181 0.04286,0.06248 0.100565,0.117282 0.158033,0.172531 0.04696,0.03798 0.09464,0.0747 0.14755,0.10829 0.07366,0.03855 0.155405,0.06688 0.234302,0.09892 0.08403,0.03131 0.176807,0.0431 0.265702,0.06457 0.08034,0.01775 0.164513,0.02007 0.247753,0.02206 0.09065,-0.0037 0.186592,-0.01342 0.273945,-0.0332 0.09813,-0.01358 0.188362,-0.0434 0.280662,-0.06984 0.09362,-0.02462 0.191447,-0.04799 0.275423,-0.08772 0.0132,-0.0052 0.05263,-0.02116 0.03964,-0.01565 -0.187124,0.07925 -0.374351,0.15836 -0.562039,0.236883 -0.0284,0.01187 0.0539,-0.02723 0.08217,-0.03926 0.08147,-0.03468 1.513777,-0.637363 0.0807,-0.03427 1.429493,-0.60678 0.318323,-0.134756 0.07494,-0.03277 -0.01214,0.0051 0.02384,-0.01081 0.03516,-0.01684 0.03226,-0.01715 0.06239,-0.03676 0.09128,-0.05681 0.05976,-0.0413 0.116303,-0.08535 0.171281,-0.130147 0.06849,-0.05658 0.120944,-0.122119 0.17662,-0.185486 0.06017,-0.06866 0.114115,-0.14001 0.160231,-0.214266 0.03757,-0.07679 0.08006,-0.152232 0.118383,-0.228794 0.04014,-0.06707 0.0641,-0.137217 0.08588,-0.208327 0.02667,-0.06649 0.04121,-0.134614 0.04907,-0.203514 0.0061,-0.06861 0.006,-0.137415 0.0061,-0.206143 -4.5e-5,-0.06926 -2.64e-4,-0.138524 -2.64e-4,-0.207787 0.0049,-0.06362 -0.0016,-0.125228 -0.01871,-0.187448 -0.01167,-0.03659 -0.01662,-0.102744 -0.07876,-0.111643 -0.0276,0.0032 -0.01519,-0.0012 -0.03661,0.01372 0.196342,-0.07993 0.39225,-0.160425 0.58902,-0.239784 0.0089,-0.0036 -0.01759,0.0075 -0.02519,0.0124 -0.01984,0.01276 -0.02987,0.02627 -0.04445,0.04226 -0.05944,0.06138 -0.09476,0.132436 -0.128098,0.202989 -0.04201,0.09642 -0.06805,0.195409 -0.0932,0.294699 -0.03136,0.105792 -0.04574,0.21337 -0.0541,0.321255 -0.0047,0.110569 -0.01058,0.221346 -0.0019,0.331853 0.01267,0.111836 0.03712,0.222842 0.06876,0.332582 0.03085,0.10456 0.07018,0.2077 0.107466,0.311114 0.03919,0.09195 0.07663,0.184365 0.110673,0.277432 0.03023,0.08485 0.06473,0.168769 0.0965,0.253291 0.03455,0.07984 0.05677,0.161943 0.08646,0.242722 0.02212,0.07149 0.04147,0.143306 0.0633,0.214885 0.02011,0.06881 0.0232,0.139094 0.04102,0.208152 0.02535,0.07135 0.02694,0.142236 0.01582,0.214908 -0.01445,0.06911 -0.01606,0.139123 -0.02646,0.208497 -0.01407,0.07081 -0.03521,0.140367 -0.05863,0.20975 -0.02593,0.07055 -0.05895,0.13951 -0.08902,0.20912 -0.02223,0.06001 -0.06597,0.112364 -0.111202,0.164148 -0.04495,0.06064 -0.105645,0.113182 -0.17109,0.162309 -0.219395,0.158908 -0.514903,0.249873 -0.786328,0.353296 -0.08657,0.02067 -0.174093,0.04069 -0.263044,0.0557 -0.09476,0.01397 -0.191614,0.0159 -0.287933,0.01726 -0.08563,1.7e-5 -0.168288,-0.02008 -0.253431,-0.02761 -0.07946,-0.01688 -0.155358,-0.04075 -0.234918,-0.05719 -0.08012,-0.01267 -0.155564,-0.03713 -0.22974,-0.06204 -0.07774,-0.01685 -0.143902,-0.05168 -0.21834,-0.07393 -0.06752,-0.024 -0.121756,-0.06081 -0.180282,-0.09411 -0.009,-0.0035 -0.01802,-0.007 -0.02702,-0.01053 0,0 0.591524,-0.279935 0.591524,-0.279935 v 0 c 0.01061,0.0054 0.02122,0.01065 0.03184,0.01598 0.05273,0.03207 0.106908,0.06262 0.169874,0.0834 0.07231,0.02587 0.142983,0.054 0.218977,0.07405 0.07187,0.02408 0.14742,0.042 0.22375,0.05682 0.07558,0.01831 0.150318,0.0399 0.228886,0.05042 0.08159,0.0097 0.162335,0.02664 0.245797,0.02075 0.09369,-0.0029 0.187773,-0.0078 0.278533,-0.0264 0.08622,-0.01823 0.174786,-0.03384 0.254344,-0.06509 0.232484,-0.08597 0.04258,-0.01641 -0.534152,0.229929 -0.08115,0.03466 0.207018,-0.09018 0.123375,-0.06135 0.05916,-0.0507 0.1332,-0.09237 0.176806,-0.152418 0.03833,-0.05201 0.09163,-0.09687 0.119305,-0.153052 0.02627,-0.06974 0.06123,-0.137481 0.09059,-0.206535 0.02125,-0.06867 0.04804,-0.135921 0.06107,-0.205902 0.0185,-0.06807 0.01066,-0.138615 0.02733,-0.207147 0.01225,-0.06806 0.02122,-0.133126 -0.0057,-0.200533 -0.01894,-0.06879 -0.025,-0.137952 -0.04024,-0.207182 -0.02066,-0.07107 -0.0429,-0.141597 -0.06114,-0.213011 -0.02939,-0.08089 -0.05069,-0.16313 -0.08638,-0.242774 -0.03007,-0.08503 -0.06519,-0.169028 -0.09602,-0.25391 -0.03199,-0.09347 -0.07017,-0.185822 -0.10941,-0.277758 -0.03716,-0.104247 -0.07639,-0.208169 -0.108284,-0.313348 -0.0337,-0.111747 -0.05831,-0.225216 -0.07298,-0.33916 -0.01297,-0.112047 -0.0057,-0.224804 -0.0026,-0.337129 0.0065,-0.109925 0.01881,-0.219856 0.05017,-0.327683 0.02658,-0.1005 0.04753,-0.201574 0.08728,-0.299966 0.03147,-0.0745 0.06715,-0.14748 0.116502,-0.216681 0.01376,-0.0128 0.04621,-0.06446 0.0591,-0.07007 0.264814,-0.115446 0.440944,-0.331029 0.694764,-0.245511 0.0653,0.03774 0.09714,0.09046 0.107993,0.150519 0.01812,0.06546 0.03201,0.129585 0.02429,0.196836 9.3e-5,0.06929 2.65e-4,0.138574 5.29e-4,0.207863 4.5e-5,0.06981 5.3e-4,0.139653 -0.0039,0.209407 -0.0058,0.07143 -0.01593,0.142834 -0.04378,0.211743 -0.02752,0.07085 -0.03584,0.145937 -0.08382,0.212334 -0.03457,0.07874 -0.08478,0.153126 -0.117179,0.232482 -0.04207,0.07714 -0.09385,0.151083 -0.155326,0.220889 -0.05278,0.0664 -0.111665,0.13031 -0.170736,0.193748 -0.05563,0.04578 -0.112577,0.08934 -0.166888,0.135658 -0.0358,0.02108 -0.08774,0.06631 -0.122889,0.08178 -0.07301,0.03213 -1.516023,0.644985 -0.07505,0.03274 -0.213206,0.09055 -0.424942,0.18298 -0.639619,0.271638 -0.187479,0.07743 0.371874,-0.158803 0.558022,-0.237937 0.02826,-0.01201 -0.05298,0.02817 -0.08113,0.04033 -0.508252,0.21943 -0.432538,0.188984 -0.6799,0.287331 -0.09188,0.03044 -0.185391,0.0578 -0.280376,0.0826 -0.09315,0.02732 -0.18881,0.04852 -0.286825,0.06438 -0.09443,0.01268 -0.189846,0.02746 -0.286355,0.0215 -0.0878,-0.0042 -0.175567,-0.01123 -0.258943,-0.03321 -0.09172,-0.02205 -0.187756,-0.03564 -0.271568,-0.07276 -0.08399,-0.03256 -0.169275,-0.06446 -0.244195,-0.10776 -0.05598,-0.03595 -0.106143,-0.0761 -0.154659,-0.117428 -0.05984,-0.05784 -0.116761,-0.116827 -0.163063,-0.181262 -0.04765,-0.06872 -0.09185,-0.13912 -0.126862,-0.21184 -0.03727,-0.0754 -0.06851,-0.153303 -0.07865,-0.233418 -4.2e-5,-0.07887 -0.0013,-0.157784 0.004,-0.236584 0.0072,-0.0878 0.01799,-0.176078 0.04977,-0.261204 0.03135,-0.0843 0.05598,-0.169427 0.102883,-0.250398 0.04912,-0.09447 0.09936,-0.189486 0.168309,-0.277197 0.05831,-0.08306 0.119811,-0.163557 0.201991,-0.235769 0.06821,-0.07047 0.161875,-0.121891 0.232391,-0.191214 0.233397,-0.195932 0.583375,-0.30435 0.8909,-0.418134 0.115946,-0.03058 0.234402,-0.05548 0.356222,-0.07006 0.12496,-0.01647 0.252812,-0.02746 0.37986,-0.02157 0.118374,0.01243 0.233944,0.03311 0.349771,0.05468 0.115258,0.02593 0.22788,0.05852 0.337179,0.09581 0.114808,0.04026 0.225891,0.08697 0.328796,0.14201 0.09409,0.05286 0.18706,0.106948 0.257016,0.178235 0.09531,0.100238 0.188089,0.201673 0.2833,0.301955 0,0 -0.606317,0.258713 -0.606317,0.258713 z"
         id="path150" />
      <path
         style="stroke-width:0.19559185"
         inkscape:connector-curvature="0"
         d="m 44.260068,32.683083 c 0.141736,-0.163124 0.284996,-0.323943 0.422291,-0.493415 0.193112,-0.253243 0.37408,-0.521272 0.555045,-0.789029 0.229896,-0.337749 0.449505,-0.686909 0.665413,-1.039803 0.200446,-0.321598 0.383466,-0.660272 0.568619,-0.996708 0.169462,-0.29351 0.329705,-0.595772 0.486682,-0.900716 0.131532,-0.258452 0.262149,-0.517689 0.393551,-0.776252 0.111777,-0.218447 0.226106,-0.434675 0.335644,-0.655055 0.07631,-0.148283 0.160879,-0.288921 0.239152,-0.435394 0.04734,-0.09405 0.100465,-0.182771 0.148032,-0.276614 0.03307,-0.07157 0.06663,-0.14269 0.100445,-0.213679 0.02952,-0.05869 0.05736,-0.119167 0.08866,-0.1763 -0.07197,-0.410073 0.409964,-0.453037 0.440438,-0.219321 0.0048,0.03636 -0.0022,0.07863 -0.0047,0.114797 -0.01252,0.113197 -0.03265,0.224634 -0.04886,0.336968 -0.01861,0.14746 -0.03617,0.29478 -0.04612,0.443698 -0.0165,0.164465 -0.02881,0.329246 -0.03525,0.494886 -0.006,0.188497 -0.0063,0.377206 -0.0066,0.565833 0.0084,0.197899 0.01529,0.396192 0.02794,0.593733 0.01498,0.192357 0.0369,0.383785 0.05972,0.574818 0.02196,0.1908 0.05709,0.378117 0.09189,0.565454 0.03329,0.187847 0.06878,0.375284 0.111602,0.559876 0.04475,0.188195 0.09974,0.371851 0.15926,0.552877 0.05524,0.165758 0.11646,0.327795 0.18265,0.486563 0.05934,0.146052 0.121886,0.289734 0.18406,0.433754 0.05834,0.132454 0.119553,0.262325 0.18349,0.390292 0.04577,0.106211 0.09827,0.206186 0.158144,0.299659 0.04809,0.07953 0.09408,0.161533 0.144743,0.238303 0.03332,0.05263 0.0666,0.106678 0.105412,0.152734 0.03078,0.04301 0.06368,0.08263 0.09305,0.127478 0.0296,0.05244 0.06567,0.09933 0.09407,0.152758 -0.418244,0.343117 -0.318102,0.407725 -0.491981,0.164494 -0.0569,-0.07879 -0.115459,-0.155537 -0.174034,-0.232222 -0.06683,-0.0863 -0.12602,-0.18199 -0.192285,-0.268966 -0.0641,-0.08662 -0.11433,-0.188226 -0.178959,-0.274223 -0.06035,-0.08058 -0.130798,-0.146161 -0.193857,-0.222661 -0.06207,-0.08634 -0.131782,-0.161939 -0.199662,-0.240229 -0.05776,-0.0737 -0.122985,-0.135933 -0.184835,-0.203509 -0.06403,-0.07136 -0.124331,-0.148091 -0.184441,-0.224922 -0.05315,-0.06283 -0.106242,-0.125021 -0.161118,-0.18539 -0.06187,-0.05132 -0.115825,-0.116269 -0.174653,-0.172753 -0.06708,-0.05273 -0.130298,-0.111887 -0.194642,-0.169772 -0.05206,-0.04734 -0.105545,-0.0918 -0.155928,-0.142318 -0.04712,-0.04674 -0.09811,-0.08724 -0.145066,-0.134167 -0.05022,-0.04627 -0.101409,-0.09072 -0.150895,-0.138358 -0.05683,-0.05174 -0.118422,-0.09287 -0.178682,-0.137115 -0.06092,-0.038 -0.119063,-0.08308 -0.18261,-0.113458 -0.05099,-0.03345 -0.103504,-0.06462 -0.158282,-0.08607 -0.04981,-0.02984 -0.100334,-0.05907 -0.152997,-0.07943 -0.05854,-0.02844 -0.117332,-0.05736 -0.177657,-0.07897 -0.05393,-0.0186 -0.104822,-0.04462 -0.160523,-0.05488 -0.04804,-0.02212 -0.09658,-0.03682 -0.144182,-0.06009 0,0 0.378408,-0.331508 0.378408,-0.331508 v 0 c 0.04541,0.02121 0.09285,0.03505 0.139266,0.05188 0.05551,0.01548 0.107964,0.04278 0.162955,0.06083 0.05999,0.02501 0.119398,0.05237 0.178677,0.08005 0.05177,0.02416 0.102248,0.05258 0.15311,0.07971 0.05435,0.02592 0.107196,0.05663 0.15933,0.08927 0.06345,0.03562 0.124159,0.0788 0.185571,0.119919 0.0621,0.04428 0.123797,0.08963 0.181628,0.143011 0.05047,0.04644 0.101742,0.09137 0.151942,0.138314 0.04833,0.04484 0.09705,0.08892 0.144818,0.134794 0.05091,0.04843 0.103432,0.09386 0.154893,0.141241 0.06363,0.06011 0.12934,0.115408 0.195044,0.171633 0.05842,0.05894 0.115716,0.119658 0.17622,0.175063 0.05586,0.06085 0.108628,0.125525 0.16205,0.18991 0.05944,0.07561 0.119158,0.151013 0.182862,0.220606 0.06253,0.06729 0.126949,0.131631 0.185289,0.205246 0.068,0.07836 0.136121,0.156401 0.199299,0.24146 0.06529,0.07543 0.136043,0.142879 0.196193,0.225793 0.06252,0.08788 0.114332,0.187252 0.177946,0.273881 0.06564,0.08766 0.125368,0.182617 0.192718,0.268213 0.05894,0.07712 0.11784,0.15431 0.17546,0.233107 0.175395,0.241384 0.125371,0.100322 -0.28767,0.451003 -0.002,0.0018 -0.0026,-0.0054 -0.0039,-0.008 -0.02449,-0.05323 -0.0609,-0.09749 -0.08959,-0.146751 -0.0292,-0.04251 -0.06124,-0.08131 -0.09114,-0.122974 -0.03807,-0.05001 -0.07349,-0.103549 -0.106539,-0.159228 -0.04931,-0.07838 -0.09656,-0.158989 -0.143917,-0.239404 -0.06036,-0.09578 -0.113487,-0.197892 -0.159315,-0.306577 -0.06444,-0.129008 -0.125374,-0.260623 -0.184204,-0.3941 -0.06241,-0.144229 -0.124524,-0.288609 -0.184196,-0.434796 -0.06645,-0.160643 -0.127665,-0.324753 -0.18344,-0.492157 -0.05993,-0.183039 -0.115783,-0.368477 -0.162034,-0.558201 -0.04325,-0.185532 -0.07905,-0.374047 -0.112249,-0.562995 -0.0359,-0.188651 -0.07114,-0.377506 -0.09412,-0.569701 -0.02242,-0.192392 -0.04541,-0.384902 -0.06073,-0.578473 -0.01378,-0.19897 -0.01876,-0.398929 -0.02993,-0.598186 3.43e-4,-0.189203 -8.8e-5,-0.378455 0.0046,-0.567585 0.0057,-0.166024 0.01496,-0.331661 0.03385,-0.496163 0.0087,-0.150331 0.02535,-0.298903 0.04304,-0.44779 0.01395,-0.110875 0.03311,-0.220371 0.04856,-0.330864 3.43e-4,-0.0063 0.0036,-0.111565 0.01127,-0.108075 0.0026,0.0011 0.0012,0.01115 0.0034,0.0094 0.127553,-0.09311 0.252442,-0.192247 0.378664,-0.288371 -0.04401,0.04007 -0.05839,0.1123 -0.09447,0.162751 -0.03052,0.07447 -0.06985,0.141902 -0.100702,0.21614 -0.04451,0.09822 -0.100919,0.185409 -0.149484,0.280162 -0.07709,0.149227 -0.164297,0.28912 -0.243672,0.4363 -0.109904,0.221682 -0.225754,0.438172 -0.33848,0.657394 -0.13212,0.259206 -0.263685,0.518889 -0.395962,0.777959 -0.15753,0.30598 -0.317384,0.610262 -0.488533,0.903734 -0.186027,0.337474 -0.369045,0.678035 -0.570281,1.00075 -0.215528,0.35266 -0.434216,0.702154 -0.662452,1.041131 -0.179816,0.267393 -0.35865,0.535966 -0.549004,0.790964 -0.13309,0.169514 -0.274592,0.326621 -0.411535,0.490757 0,0 -0.420868,0.22233 -0.420868,0.22233 z"
         id="path156" />
      <path
         transform="matrix(0.1534958,0,0,0.31126335,40.563204,-5.6207084)"
         style="fill:#e5ce00;fill-opacity:1;stroke-width:0.26458332"
         inkscape:transform-center-y="0.013252835"
         inkscape:transform-center-x="-0.18734544"
         d="m 72.405941,124.8472 -4.105121,-4.30753 -5.875696,0.9397 2.828153,-5.2353 -2.709394,-5.29774 5.853015,1.07194 4.201199,-4.21388 0.78921,5.89779 5.305877,2.69342 -5.365257,2.5731 z"
         inkscape:randomized="0"
         inkscape:rounded="0"
         inkscape:flatsided="false"
         sodipodi:arg2="1.89623"
         sodipodi:arg1="1.2679115"
         sodipodi:r2="4.4802537"
         sodipodi:r1="8.9605074"
         sodipodi:cy="116.29458"
         sodipodi:cx="69.733246"
         sodipodi:sides="5"
         id="path3721-6-4-9-2"
         sodipodi:type="star" />
      <path
         transform="matrix(0.31317458,0,0,0.20106469,32.03904,17.486265)"
         style="fill:#e51700;fill-opacity:1;stroke:#14a34f;stroke-width:0.26458332;stroke-opacity:0.11594202"
         inkscape:transform-center-y="0.0085615067"
         inkscape:transform-center-x="-0.38223897"
         d="m 82.798877,100.07281 -4.10512,-4.307528 -5.875696,0.939696 2.828153,-5.235302 -2.709394,-5.297737 5.853015,1.071936 4.201199,-4.213877 0.789209,5.897794 5.305877,2.693418 -5.365256,2.573101 z"
         inkscape:randomized="0"
         inkscape:rounded="0"
         inkscape:flatsided="false"
         sodipodi:arg2="1.89623"
         sodipodi:arg1="1.2679115"
         sodipodi:r2="4.4802537"
         sodipodi:r1="8.9605074"
         sodipodi:cy="91.520187"
         sodipodi:cx="80.126183"
         sodipodi:sides="5"
         id="path3721-9-3-2-7-7"
         sodipodi:type="star" />
      <path
         transform="matrix(0.2351469,0,0,0.35915828,21.328296,-4.287361)"
         style="fill:#1eceeb;fill-opacity:0.9758454;stroke-width:0.26458332"
         inkscape:transform-center-y="0.015292684"
         inkscape:transform-center-x="-0.28700376"
         d="m 82.798877,100.07281 -4.10512,-4.307528 -5.875696,0.939696 2.828153,-5.235302 -2.709394,-5.297737 5.853015,1.071936 4.201199,-4.213877 0.789209,5.897794 5.305877,2.693418 -5.365256,2.573101 z"
         inkscape:randomized="0"
         inkscape:rounded="0"
         inkscape:flatsided="false"
         sodipodi:arg2="1.89623"
         sodipodi:arg1="1.2679115"
         sodipodi:r2="4.4802537"
         sodipodi:r1="8.9605074"
         sodipodi:cy="91.520187"
         sodipodi:cx="80.126183"
         sodipodi:sides="5"
         id="path3721-1-1-5"
         sodipodi:type="star" />
      <path
         transform="matrix(0.16633742,0,0,-0.1347499,41.251868,39.576759)"
         style="fill:#3bce00;fill-opacity:1;stroke-width:0.26458332"
         inkscape:transform-center-y="-0.0057382249"
         inkscape:transform-center-x="-0.20301907"
         d="m 72.405941,124.8472 -4.105121,-4.30753 -5.875696,0.9397 2.828153,-5.2353 -2.709394,-5.29774 5.853015,1.07194 4.201199,-4.21388 0.78921,5.89779 5.305877,2.69342 -5.365257,2.5731 z"
         inkscape:randomized="0"
         inkscape:rounded="0"
         inkscape:flatsided="false"
         sodipodi:arg2="1.89623"
         sodipodi:arg1="1.2679115"
         sodipodi:r2="4.4802537"
         sodipodi:r1="8.9605074"
         sodipodi:cy="116.29458"
         sodipodi:cx="69.733246"
         sodipodi:sides="5"
         id="path3721-6-9-5-3"
         sodipodi:type="star" />
    </g>
  </g>
</svg>
